<?xml version="1.0" encoding="UTF-8"?>
<svg version="1.1" xmlns="http://www.w3.org/2000/svg" width="275" height="183">
<path d="M0 0 C90.75 0 181.5 0 275 0 C275 60.39 275 120.78 275 183 C184.25 183 93.5 183 0 183 C0 122.61 0 62.22 0 0 Z " fill="#A7BBC1" transform="translate(0,0)"/>
<path d="M0 0 C0.74056641 0.02255859 1.48113281 0.04511719 2.24414062 0.06835938 C4.05947357 0.1269185 5.87375681 0.21659114 7.6875 0.3125 C7.64625 1.10011719 7.605 1.88773438 7.5625 2.69921875 C7.60375 3.56160156 7.645 4.42398438 7.6875 5.3125 C9.5879467 7.15565671 9.5879467 7.15565671 11.6875 8.3125 C11.831875 7.343125 11.97625 6.37375 12.125 5.375 C12.6875 2.3125 12.6875 2.3125 13.6875 1.3125 C15.20678038 1.24070036 16.72917482 1.22857993 18.25 1.25 C19.07628906 1.25902344 19.90257812 1.26804688 20.75390625 1.27734375 C21.39199219 1.28894531 22.03007812 1.30054688 22.6875 1.3125 C22.60371094 2.09753906 22.51992187 2.88257813 22.43359375 3.69140625 C21.63885483 11.89029508 21.12007262 18.16348323 25.6875 25.3125 C25.6875 26.3025 25.6875 27.2925 25.6875 28.3125 C28.3275 28.3125 30.9675 28.3125 33.6875 28.3125 C33.1925 26.7346875 33.1925 26.7346875 32.6875 25.125 C31.6875 21.3125 31.6875 21.3125 31.6875 16.3125 C34.9875 16.3125 38.2875 16.3125 41.6875 16.3125 C42.6775 20.6025 43.6675 24.8925 44.6875 29.3125 C47.9875 29.6425 51.2875 29.9725 54.6875 30.3125 C54.1925 28.91 53.6975 27.5075 53.1875 26.0625 C52.03157525 22.78737986 51.6875 20.89313513 51.6875 17.3125 C55.3175 17.3125 58.9475 17.3125 62.6875 17.3125 C62.81125 18.34375 62.935 19.375 63.0625 20.4375 C63.62639814 23.93366846 64.47432059 26.99647627 65.6875 30.3125 C68.6575 30.6425 71.6275 30.9725 74.6875 31.3125 C74.1925 29.7346875 74.1925 29.7346875 73.6875 28.125 C72.83676051 24.8815557 72.59671617 22.59773991 72.6875 19.3125 C74.83326637 19.28564062 76.97912645 19.26616912 79.125 19.25 C80.31996094 19.23839844 81.51492187 19.22679688 82.74609375 19.21484375 C85.6875 19.3125 85.6875 19.3125 86.6875 20.3125 C86.75955511 21.99858966 86.77136068 23.68750659 86.75 25.375 C86.74097656 26.29410156 86.73195313 27.21320313 86.72265625 28.16015625 C86.71105469 28.87042969 86.69945312 29.58070312 86.6875 30.3125 C85.2025 30.8075 85.2025 30.8075 83.6875 31.3125 C83.68972061 32.02437973 83.69194122 32.73625946 83.69422913 33.4697113 C83.71423253 40.16524235 83.72947438 46.86076511 83.73931217 53.55631924 C83.74453982 56.99890348 83.75163531 60.44146312 83.76293945 63.8840332 C83.77584235 67.83805043 83.78072918 71.79205756 83.78515625 75.74609375 C83.79031754 76.98773788 83.79547882 78.22938202 83.80079651 79.50865173 C83.80087204 80.64975906 83.80094757 81.79086639 83.80102539 82.96655273 C83.803246 83.976931 83.80546661 84.98730927 83.80775452 86.02830505 C83.6875 88.3125 83.6875 88.3125 82.6875 89.3125 C80.4896791 89.2924424 78.29243502 89.20326261 76.09765625 89.0859375 C74.74286627 89.02283936 73.38804742 88.96035848 72.03320312 88.8984375 C69.88862409 88.79513171 67.74460756 88.68720107 65.60083008 88.56835938 C63.53767708 88.45633726 61.47437017 88.36345886 59.41015625 88.2734375 C58.17015869 88.20946777 56.93016113 88.14549805 55.65258789 88.07958984 C54.67410889 88.1564502 53.69562988 88.23331055 52.6875 88.3125 C52.0275 89.3025 51.3675 90.2925 50.6875 91.3125 C45.06401559 92.28098898 39.15220512 91.28089019 33.578125 90.35546875 C24.15262475 88.9686729 14.69791703 88.68113417 5.1875 88.3125 C-6.43911994 87.86183949 -17.82454323 87.28624403 -29.3125 85.3125 C-29.3125 84.3225 -29.3125 83.3325 -29.3125 82.3125 C-28.219375 82.4775 -27.12625 82.6425 -26 82.8125 C-22.43724127 83.37968184 -22.43724127 83.37968184 -19.3125 83.3125 C-17.30940671 83.62671071 -15.30878664 83.9576046 -13.3125 84.3125 C-12.8175 82.8275 -12.8175 82.8275 -12.3125 81.3125 C-11.6525 81.6425 -10.9925 81.9725 -10.3125 82.3125 C-10.08056826 80.08781613 -10.08056826 80.08781613 -12.25 78.3125 C-12.930625 77.6525 -13.61125 76.9925 -14.3125 76.3125 C-15.83741998 73.26266004 -15.54812548 70.6701631 -15.3125 67.3125 C-14.25 65.375 -14.25 65.375 -12.3125 64.3125 C-8.75 64 -8.75 64 -5.3125 64.3125 C-4.6525 64.9725 -3.9925 65.6325 -3.3125 66.3125 C-1.32893517 67.02658334 0.67065437 67.69867742 2.6875 68.3125 C3.0175 67.6525 3.3475 66.9925 3.6875 66.3125 C4.6775 66.3125 5.6675 66.3125 6.6875 66.3125 C8.02731486 66.0062566 9.36261887 65.67798445 10.6875 65.3125 C12.23825354 52.4495185 12.23825354 52.4495185 8.55859375 40.2734375 C7.6875 38.3125 7.6875 38.3125 8.5625 34.5 C8.98942643 32.41159576 8.98942643 32.41159576 8.6875 30.3125 C4.04376776 24.05463623 -2.75886586 20.9329758 -10.25 19.625 C-11.260625 19.521875 -12.27125 19.41875 -13.3125 19.3125 C-13.44813775 17.08502674 -13.54477853 14.85515677 -13.625 12.625 C-13.68300781 11.38363281 -13.74101563 10.14226563 -13.80078125 8.86328125 C-13.3125 5.3125 -13.3125 5.3125 -11.3125 2.375 C-7.35666849 -0.34463416 -4.66762336 -0.27113094 0 0 Z " fill="#252A2C" transform="translate(114.3125,48.6875)"/>
<path d="M0 0 C19.10864642 -0.6055557 37.9963975 1.23875905 57 3 C57 3.66 57 4.32 57 5 C49.57670253 5.11479326 42.37516246 4.86766617 35 4 C35 9.61 35 15.22 35 21 C42.26 21 49.52 21 57 21 C57 21.66 57 22.32 57 23 C38.24029053 23.6363218 19.65744984 21.71997413 1 20 C1 21.65 1 23.3 1 25 C1.93283813 24.97607178 1.93283813 24.97607178 2.88452148 24.95166016 C12.37851755 24.82413505 21.79558225 25.47931122 31.25756836 26.171875 C34.08714049 26.37678439 36.91746015 26.56749635 39.74804688 26.7578125 C41.55214525 26.88716012 43.35618435 27.01733781 45.16015625 27.1484375 C46.00385269 27.20373627 46.84754913 27.25903503 47.71681213 27.31600952 C51.54771562 27.60954625 53.74571264 27.8304751 57 30 C37.86576471 30.56338534 19.02140239 28.82916811 0 27 C0 28.65 0 30.3 0 32 C12.47294387 33.72890094 24.9418551 34.75465539 37.5 35.625 C39.40237153 35.76002586 41.30471552 35.89544026 43.20703125 36.03125 C47.80438343 36.35863162 52.40207239 36.68080608 57 37 C57 37.66 57 38.32 57 39 C49.07799001 39.08252776 41.23206517 38.86871355 33.328125 38.34375 C32.27969421 38.27716187 31.23126343 38.21057373 30.15106201 38.14196777 C26.85046865 37.9315316 23.5502424 37.71586309 20.25 37.5 C17.99220983 37.35512027 15.73439747 37.21058598 13.4765625 37.06640625 C7.9841125 36.71492404 2.49195284 36.35916251 -3 36 C-1.30837006 39.280866 -1.30837006 39.280866 1.921875 39.67333984 C3.18515625 39.80949707 4.4484375 39.9456543 5.75 40.0859375 C6.4502832 40.16315033 7.15056641 40.24036316 7.87207031 40.31991577 C17.55857934 41.341917 27.28344713 41.96879125 37 42.625 C38.95054881 42.76001303 40.9010699 42.89542728 42.8515625 43.03125 C47.56740245 43.35877867 52.28358081 43.68092555 57 44 C57 44.66 57 45.32 57 46 C42.27510544 46.41156538 27.66946626 45.16267271 13 44 C14.6327851 47.74667202 14.6327851 47.74667202 17 51 C19.24621176 51.21168488 21.49763282 51.36915709 23.75 51.5 C27.92885432 51.74478645 31.91596027 52.06472373 36 53 C35.34 54.32 34.68 55.64 34 57 C28.17552377 57.21396035 22.63672363 57.0233264 16.8828125 56.0546875 C7.46004988 54.6539898 -1.9904606 54.36860015 -11.5 54 C-23.12661994 53.54933949 -34.51204323 52.97374403 -46 51 C-46 50.01 -46 49.02 -46 48 C-44.906875 48.165 -43.81375 48.33 -42.6875 48.5 C-39.12474127 49.06718184 -39.12474127 49.06718184 -36 49 C-33.99690671 49.31421071 -31.99628664 49.6451046 -30 50 C-29.67 49.01 -29.34 48.02 -29 47 C-28.34 47.33 -27.68 47.66 -27 48 C-26.76806826 45.77531613 -26.76806826 45.77531613 -28.9375 44 C-29.618125 43.34 -30.29875 42.68 -31 42 C-32.52491998 38.95016004 -32.23562548 36.3576631 -32 33 C-30.9375 31.0625 -30.9375 31.0625 -29 30 C-25.4375 29.6875 -25.4375 29.6875 -22 30 C-21.34 30.66 -20.68 31.32 -20 32 C-18.01643517 32.71408334 -16.01684563 33.38617742 -14 34 C-13.505 33.01 -13.505 33.01 -13 32 C-12.01 32 -11.02 32 -10 32 C-8.66018514 31.6937566 -7.32488113 31.36548445 -6 31 C-5.24332624 23.46818582 -4.85635992 16.49719609 -6 9 C-5.505 10.485 -5.505 10.485 -5 12 C-4.34 12 -3.68 12 -3 12 C-2.505 12.495 -2.505 12.495 -2 13 C-1.67 11.68 -1.34 10.36 -1 9 C-1 9.66 -1 10.32 -1 11 C-0.34 11 0.32 11 1 11 C1 13.31 1 15.62 1 18 C1.99 18 2.98 18 4 18 C4 12.39 4 6.78 4 1 C2.68 0.67 1.36 0.34 0 0 Z " fill="#728185" transform="translate(131,83)"/>
<path d="M0 0 C1.53297297 3.06594594 1.12131455 6.27111853 1.09765625 9.6328125 C1.0962413 10.38464813 1.09482635 11.13648376 1.09336853 11.91110229 C1.08776465 14.3157751 1.07521157 16.72035527 1.0625 19.125 C1.0574855 20.75390491 1.0529225 22.38281127 1.04882812 24.01171875 C1.03779397 28.00784827 1.02052679 32.00390842 1 36 C-7.00337844 35.73390579 -15.00165069 35.3881079 -23 35 C-24.16354004 34.94618164 -25.32708008 34.89236328 -26.52587891 34.83691406 C-29.936075 34.66819157 -33.3423923 34.46424553 -36.75 34.25 C-37.81404053 34.20053223 -38.87808105 34.15106445 -39.97436523 34.10009766 C-47.33532543 33.58783358 -47.33532543 33.58783358 -50.703125 30.609375 C-52 28 -52 28 -52 25 C-41.98558912 24.85941946 -32.11489863 25.2745314 -22.125 26 C-20.74352059 26.09679776 -19.36201017 26.19315384 -17.98046875 26.2890625 C-14.65331657 26.52173048 -11.32654042 26.75876968 -8 27 C-8 26.34 -8 25.68 -8 25 C-8.63639404 25.01667725 -9.27278809 25.03335449 -9.9284668 25.05053711 C-19.06109499 25.17723708 -28.08830589 24.50307935 -37.18334961 23.77319336 C-39.82431676 23.56155304 -42.46578477 23.35738693 -45.10742188 23.15429688 C-46.80732573 23.02126788 -48.5071968 22.88781918 -50.20703125 22.75390625 C-51.37598686 22.66321617 -51.37598686 22.66321617 -52.56855774 22.57069397 C-54.02995767 22.45247565 -55.49072759 22.32608778 -56.95059204 22.19021606 C-58.93997918 22.00557084 -60.93232409 21.85370834 -62.92456055 21.70288086 C-66 21 -66 21 -67.4375 18.9375 C-67.623125 18.298125 -67.80875 17.65875 -68 17 C-54.93570289 16.74402321 -42.02414793 17.55058804 -29 18.5 C-26.95316126 18.6450439 -24.90628637 18.78957845 -22.859375 18.93359375 C-17.90581454 19.28320624 -12.952791 19.63965762 -8 20 C-8 19.34 -8 18.68 -8 18 C-8.62986816 18.01667725 -9.25973633 18.03335449 -9.90869141 18.05053711 C-19.20503759 18.18021236 -28.40521153 17.49478734 -37.66552734 16.77319336 C-40.38990684 16.56134082 -43.11479343 16.35731972 -45.83984375 16.15429688 C-47.58857653 16.02129092 -49.33727578 15.88784317 -51.0859375 15.75390625 C-52.29544571 15.66321617 -52.29544571 15.66321617 -53.52938843 15.57069397 C-57.73428817 15.23951829 -61.84683427 14.76995027 -66 14 C-65.67 12.02 -65.34 10.04 -65 8 C-61.22897636 8.14114675 -57.4582328 8.2888013 -53.6875 8.4375 C-52.63498047 8.47681641 -51.58246094 8.51613281 -50.49804688 8.55664062 C-45.60733365 8.75226915 -40.76058138 9.00180028 -35.89453125 9.53515625 C-27.63115258 10.35834865 -19.29374113 10.07735095 -11 10 C-12.17916992 9.91435791 -13.35833984 9.82871582 -14.57324219 9.74047852 C-19.00151136 9.41868746 -23.42971919 9.09605874 -27.85791016 8.77319336 C-29.76446937 8.63429748 -31.67104455 8.49562049 -33.57763672 8.35717773 C-53.88877885 6.8820371 -53.88877885 6.8820371 -64 6 C-64 4.35 -64 2.7 -64 1 C-56.29427957 0.87215531 -48.73527724 1.25081944 -41.0625 1.9375 C-30.04839809 2.87525746 -19.04318414 3.53112738 -8 4 C-8 3.34 -8 2.68 -8 2 C-11.96 2 -15.92 2 -20 2 C-20 1.67 -20 1.34 -20 1 C-13.30324864 -0.03026944 -6.7685324 -0.10152799 0 0 Z " fill="#171C20" transform="translate(196,102)"/>
<path d="M0 0 C0.78375 0.04125 1.5675 0.0825 2.375 0.125 C2.045 1.775 1.715 3.425 1.375 5.125 C1.931875 4.795 2.48875 4.465 3.0625 4.125 C5.375 3.125 5.375 3.125 7.9375 3.1875 C10.45391082 3.37404608 10.45391082 3.37404608 12.1875 1.625 C12.579375 1.13 12.97125 0.635 13.375 0.125 C13.375 1.115 13.375 2.105 13.375 3.125 C14.426875 2.898125 15.47875 2.67125 16.5625 2.4375 C20.375 2.125 20.375 2.125 23.1875 3.25 C25.78135973 5.47330834 26.60235001 6.80260506 27.375 10.125 C27.18883792 13.22770141 26.98257362 15.30420956 25.1171875 17.82421875 C23.375 19.125 23.375 19.125 21.11328125 19.19921875 C20.31277344 19.07160156 19.51226562 18.94398437 18.6875 18.8125 C17.87925781 18.69261719 17.07101563 18.57273437 16.23828125 18.44921875 C15.62339844 18.34222656 15.00851563 18.23523438 14.375 18.125 C14.02873409 21.12530058 14.02873409 21.12530058 15.875 22.6875 C16.37 23.161875 16.865 23.63625 17.375 24.125 C17.375 24.785 17.375 25.445 17.375 26.125 C18.365 26.125 19.355 26.125 20.375 26.125 C20.375 25.465 20.375 24.805 20.375 24.125 C25.59722222 21.08882429 25.59722222 21.08882429 29.0625 21.25 C31.62455859 22.21942757 32.6495069 23.02294902 34.375 25.125 C35.29625228 28.12044904 35.54961479 30.99883196 35.375 34.125 C33.875 36.75 33.875 36.75 31.375 38.125 C27.03818557 38.20244311 25.10824345 37.82064122 21.9375 34.8125 C20.375 32.125 20.375 32.125 20.375 28.125 C19.88 29.61 19.88 29.61 19.375 31.125 C16.375 32.125 16.375 32.125 15.375 32.125 C15.375 32.785 15.375 33.445 15.375 34.125 C11.04765609 36.35423777 8.09099818 36.04970553 3.375 35.125 C4.035 35.785 4.695 36.445 5.375 37.125 C8.05405902 41.14358853 7.69682663 43.37805716 7.375 48.125 C3.88960083 47.47955571 1.34680943 46.02365603 -1.625 44.125 C0.64915287 47.49588267 0.64915287 47.49588267 4.375 49.125 C4.045 50.115 3.715 51.105 3.375 52.125 C0.15518689 51.83228972 -2.13071334 51.44079426 -4.875 49.6875 C-7.50635924 45.83443825 -7.96359653 41.68520287 -8.625 37.125 C-9.615 37.125 -10.605 37.125 -11.625 37.125 C-11.625 36.465 -11.625 35.805 -11.625 35.125 C-12.285 34.795 -12.945 34.465 -13.625 34.125 C-13.625 33.465 -13.625 32.805 -13.625 32.125 C-13.94597656 31.51785156 -14.26695313 30.91070312 -14.59765625 30.28515625 C-16.31635028 26.67132432 -16.34993984 23.03079832 -15.625 19.125 C-12.98064378 16.63174985 -11.41053491 16.17736899 -7.8125 15.9375 C-6.7296875 16.0303125 -6.7296875 16.0303125 -5.625 16.125 C-5.80675781 15.57070312 -5.98851563 15.01640625 -6.17578125 14.4453125 C-6.70903946 11.69091791 -6.38091347 9.73983471 -5.8125 7 C-5.64105469 6.13117188 -5.46960938 5.26234375 -5.29296875 4.3671875 C-4.31207775 1.07460601 -3.46720808 0.16510515 0 0 Z " fill="#A2ACAE" transform="translate(87.625,74.875)"/>
<path d="M0 0 C2.3828125 -0.29296875 2.3828125 -0.29296875 5.125 -0.1875 C6.03507812 -0.16042969 6.94515625 -0.13335937 7.8828125 -0.10546875 C8.58148438 -0.07066406 9.28015625 -0.03585938 10 0 C11.20272819 2.40545638 11.10071472 3.94996953 11.0625 6.625 C11.05347656 7.44226562 11.04445313 8.25953125 11.03515625 9.1015625 C11.02355469 9.72804688 11.01195312 10.35453125 11 11 C6.96707255 13.2344598 3.55032566 13.54496743 -1 14 C-1 14.99 -1 15.98 -1 17 C-0.34 17.33 0.32 17.66 1 18 C0.01 18.33 -0.98 18.66 -2 19 C-2 18.34 -2 17.68 -2 17 C-2.99 17 -3.98 17 -5 17 C-4.34 17.33 -3.68 17.66 -3 18 C-3 18.66 -3 19.32 -3 20 C-1.68 19.67 -0.36 19.34 1 19 C1.99 20.32 2.98 21.64 4 23 C2.02 23 0.04 23 -2 23 C-1.505 24.85625 -1.505 24.85625 -1 26.75 C-0.20108841 29.74591845 0 31.80107719 0 35 C-2.97 35 -5.94 35 -9 35 C-11.02055843 30.60748167 -12.40895235 26.84659077 -13 22 C-16.3 21.67 -19.6 21.34 -23 21 C-22.7834375 21.68707031 -22.566875 22.37414062 -22.34375 23.08203125 C-21.92609375 24.43361328 -21.92609375 24.43361328 -21.5 25.8125 C-21.2215625 26.70582031 -20.943125 27.59914063 -20.65625 28.51953125 C-20 31 -20 31 -20 34 C-23.3 33.67 -26.6 33.34 -30 33 C-32.00691802 28.06632653 -33 25.44479395 -33 20 C-36.3 20 -39.6 20 -43 20 C-42.67 21.2375 -42.34 22.475 -42 23.75 C-41.20108841 26.74591845 -41 28.80107719 -41 32 C-43.64 32 -46.28 32 -49 32 C-53.3449235 24.84639381 -54.71404789 19.34642647 -54 11 C-53.67 11.99 -53.34 12.98 -53 14 C-49.48809191 15.22969878 -49.48809191 15.22969878 -46 16 C-46 15.34 -46 14.68 -46 14 C-45.34 14 -44.68 14 -44 14 C-43.34 10.7 -42.68 7.4 -42 4 C-39.24921116 3.08307039 -37.64051087 2.89113917 -34.8125 2.9375 C-32.9253125 2.9684375 -32.9253125 2.9684375 -31 3 C-31.99 7.29 -32.98 11.58 -34 16 C-38.95 16.66 -43.9 17.32 -49 18 C-41.41 18 -33.82 18 -26 18 C-26 17.34 -26 16.68 -26 16 C-25.34 16 -24.68 16 -24 16 C-23.5875 16.495 -23.175 16.99 -22.75 17.5 C-20.23177499 19.65847858 -18.20624415 19.21374961 -15 19 C-16.12534105 17.64381501 -16.12534105 17.64381501 -19.0625 17.9375 C-20.031875 17.958125 -21.00125 17.97875 -22 18 C-22 17.34 -22 16.68 -22 16 C-22.66 15.67 -23.32 15.34 -24 15 C-23.34 11.04 -22.68 7.08 -22 3 C-18.52674819 1.8422494 -15.63932552 1.93133348 -12 2 C-12.33 5.63 -12.66 9.26 -13 13 C-10.36 12.67 -7.72 12.34 -5 12 C-4.80664062 11.38511719 -4.61328125 10.77023438 -4.4140625 10.13671875 C-4.15367187 9.32847656 -3.89328125 8.52023438 -3.625 7.6875 C-3.24214844 6.48673828 -3.24214844 6.48673828 -2.8515625 5.26171875 C-2 3 -2 3 0 0 Z M-16 15 C-15 17 -15 17 -15 17 Z " fill="#A1B4B9" transform="translate(189,45)"/>
<path d="M0 0 C8.0495023 -0.67079186 13.25571957 2.44849643 19.5625 7.25 C21.578125 9.0859375 21.578125 9.0859375 23 11 C22.8125 14.875 22.8125 14.875 22.30859375 16.88671875 C21.82465205 20.20080054 23.01379633 22.76423643 24.2109375 25.82421875 C25.96597759 30.66361147 26.02759183 34.6964899 25.5625 39.8125 C25.46066406 40.97394531 25.35882813 42.13539062 25.25390625 43.33203125 C25.17011719 44.21246094 25.08632812 45.09289062 25 46 C23.865625 46.268125 22.73125 46.53625 21.5625 46.8125 C20.386875 47.204375 19.21125 47.59625 18 48 C17.67 48.99 17.34 49.98 17 51 C16.67 50.34 16.34 49.68 16 49 C13.67793475 48.29508733 11.34406932 47.62787571 9 47 C8.505 46.505 8.505 46.505 8 46 C4.54178598 45.74996036 4.54178598 45.74996036 1 46 C-1.35601529 47.92142442 -1.35601529 47.92142442 -1.25 51.3125 C-1.01617151 54.76147029 -0.67624268 57.00040783 1 60 C2.485 60.495 2.485 60.495 4 61 C3.67 62.32 3.34 63.64 3 65 C2.34 64.34 1.68 63.68 1 63 C0.67 63.66 0.34 64.32 0 65 C-0.763125 64.979375 -1.52625 64.95875 -2.3125 64.9375 C-5.10185786 64.87057159 -5.10185786 64.87057159 -8 66 C-8.9590625 65.505 -8.9590625 65.505 -9.9375 65 C-11.96525921 63.77133649 -11.96525921 63.77133649 -14.25 64.375 C-15.11625 64.684375 -15.11625 64.684375 -16 65 C-16 65.33 -16 65.66 -16 66 C-17.65 66 -19.3 66 -21 66 C-20.79375 65.443125 -20.5875 64.88625 -20.375 64.3125 C-19.88994151 61.32130596 -20.85145569 59.77001862 -22 57 C-22.125 54.1875 -22.125 54.1875 -22 52 C-21.34 52 -20.68 52 -20 52 C-19.773125 52.61875 -19.54625 53.2375 -19.3125 53.875 C-17.59445355 56.65659901 -16.09004901 57.09559541 -13 58 C-12.01 58 -11.02 58 -10 58 C-9.67 57.34 -9.34 56.68 -9 56 C-9.61875 55.9175 -10.2375 55.835 -10.875 55.75 C-13 55 -13 55 -14.25 52.9375 C-14.4975 52.298125 -14.745 51.65875 -15 51 C-14.21625 51.33 -13.4325 51.66 -12.625 52 C-10.15667503 53.11866511 -10.15667503 53.11866511 -8 53 C-7.34 53 -6.68 53 -6 53 C-6.90428836 47.38264724 -6.90428836 47.38264724 -10.125 43 C-10.74375 42.67 -11.3625 42.34 -12 42 C-5.375 40.875 -5.375 40.875 -2 42 C-1.34 41.34 -0.68 40.68 0 40 C0.66 40.33 1.32 40.66 2 41 C1.67 39.68 1.34 38.36 1 37 C2.65 37.33 4.3 37.66 6 38 C5.67 37.01 5.34 36.02 5 35 C5.66 35 6.32 35 7 35 C7.28875 35.7425 7.5775 36.485 7.875 37.25 C8.81379336 39.5448282 9.89116553 41.78233105 11 44 C13.97 44 16.94 44 20 44 C21.12157526 37.89464769 21.12157526 37.89464769 19.875 32 C18.13899642 29.86826032 18.13899642 29.86826032 15.6875 29.0625 C12.42586355 28.98664799 10.01613501 29.80757453 7 31 C7 31.66 7 32.32 7 33 C6.01 33 5.02 33 4 33 C3.896875 32.360625 3.79375 31.72125 3.6875 31.0625 C3.460625 30.381875 3.23375 29.70125 3 29 C2.01 28.67 1.02 28.34 0 28 C0.33 26.68 0.66 25.36 1 24 C1.61488281 24.11859375 2.22976562 24.2371875 2.86328125 24.359375 C7.76193721 25.32264124 7.76193721 25.32264124 12.125 23.5 C13.35993868 19.97160376 12.91431531 17.59195301 12 14 C10.77045984 12.18700508 10.77045984 12.18700508 9 11 C8.319375 10.443125 7.63875 9.88625 6.9375 9.3125 C5.11406138 7.81305062 5.11406138 7.81305062 3 8 C2.67 6.35 2.34 4.7 2 3 C1.34 3 0.68 3 0 3 C0 2.01 0 1.02 0 0 Z " fill="#9EA7A9" transform="translate(101,68)"/>
<path d="M0 0 C0.74056641 0.02255859 1.48113281 0.04511719 2.24414062 0.06835938 C4.05947357 0.1269185 5.87375681 0.21659114 7.6875 0.3125 C7.64625 1.10011719 7.605 1.88773438 7.5625 2.69921875 C7.60375 3.56160156 7.645 4.42398438 7.6875 5.3125 C9.5879467 7.15565671 9.5879467 7.15565671 11.6875 8.3125 C11.831875 7.343125 11.97625 6.37375 12.125 5.375 C12.6875 2.3125 12.6875 2.3125 13.6875 1.3125 C15.20678038 1.24070036 16.72917482 1.22857993 18.25 1.25 C19.07628906 1.25902344 19.90257812 1.26804688 20.75390625 1.27734375 C21.39199219 1.28894531 22.03007812 1.30054688 22.6875 1.3125 C22.60371094 2.09753906 22.51992187 2.88257813 22.43359375 3.69140625 C21.68076884 11.4578911 21.3895383 18.05698427 24.6875 25.3125 C19.46770872 25.4924928 15.61487019 25.28344808 10.6875 23.3125 C10.6875 22.6525 10.6875 21.9925 10.6875 21.3125 C10.0275 21.3125 9.3675 21.3125 8.6875 21.3125 C8.6875 20.3225 8.6875 19.3325 8.6875 18.3125 C7.85605469 18.19132812 7.02460937 18.07015625 6.16796875 17.9453125 C5.08128906 17.77773437 3.99460937 17.61015625 2.875 17.4375 C1.79605469 17.27507812 0.71710938 17.11265625 -0.39453125 16.9453125 C-3.3125 16.3125 -3.3125 16.3125 -6.3125 14.3125 C-8.96495602 14.97346786 -8.96495602 14.97346786 -11.3125 16.3125 C-11.6425 16.9725 -11.9725 17.6325 -12.3125 18.3125 C-11.6525 18.6425 -10.9925 18.9725 -10.3125 19.3125 C-11.3025 19.3125 -12.2925 19.3125 -13.3125 19.3125 C-13.44813775 17.08502674 -13.54477853 14.85515677 -13.625 12.625 C-13.68300781 11.38363281 -13.74101563 10.14226563 -13.80078125 8.86328125 C-13.3125 5.3125 -13.3125 5.3125 -11.3125 2.375 C-7.35666849 -0.34463416 -4.66762336 -0.27113094 0 0 Z " fill="#292B29" transform="translate(114.3125,48.6875)"/>
<path d="M0 0 C0.99 0.33 1.98 0.66 3 1 C2.67 1.33 2.34 1.66 2 2 C3.65 2.99 5.3 3.98 7 5 C7 4.34 7 3.68 7 3 C7.66 3 8.32 3 9 3 C10.41634833 5.83269666 10.3463005 8.47466438 10.5625 11.625 C10.68818359 13.40777344 10.68818359 13.40777344 10.81640625 15.2265625 C10.87699219 16.14179687 10.93757813 17.05703125 11 18 C8.36 18 5.72 18 3 18 C3 18.66 3 19.32 3 20 C-4.44558787 21.43282791 -11.41552326 22.22307285 -19 22 C-19 16.39 -19 10.78 -19 5 C-11.60054172 4.89118444 -4.36492722 5.29134721 3 6 C3 5.34 3 4.68 3 4 C0.525 3.505 0.525 3.505 -2 3 C-1.34 2.01 -0.68 1.02 0 0 Z " fill="#222729" transform="translate(185,82)"/>
<path d="M0 0 C9.07633896 -0.11205357 17.95442316 0.32995727 27 1 C27 6.61 27 12.22 27 18 C23.43725307 17.85893083 19.87488016 17.71233018 16.3125 17.5625 C15.30509766 17.52318359 14.29769531 17.48386719 13.25976562 17.44335938 C12.28330078 17.40146484 11.30683594 17.35957031 10.30078125 17.31640625 C9.40528564 17.27974854 8.50979004 17.24309082 7.5871582 17.20532227 C5 17 5 17 0 16 C0 10.72 0 5.44 0 0 Z " fill="#1B2021" transform="translate(137,85)"/>
<path d="M0 0 C0.78375 0.04125 1.5675 0.0825 2.375 0.125 C2.045 1.775 1.715 3.425 1.375 5.125 C1.931875 4.795 2.48875 4.465 3.0625 4.125 C5.375 3.125 5.375 3.125 7.9375 3.1875 C10.45391082 3.37404608 10.45391082 3.37404608 12.1875 1.625 C12.579375 1.13 12.97125 0.635 13.375 0.125 C13.75718767 1.78114657 14.08895102 3.44957024 14.375 5.125 C14.045 5.455 13.715 5.785 13.375 6.125 C13.14072222 8.14094582 12.96163876 10.163474 12.8125 12.1875 C12.72871094 13.29222656 12.64492187 14.39695312 12.55859375 15.53515625 C12.46771484 16.81712891 12.46771484 16.81712891 12.375 18.125 C11.385 18.455 10.395 18.785 9.375 19.125 C9.375 19.455 9.375 19.785 9.375 20.125 C10.035 20.125 10.695 20.125 11.375 20.125 C11.705 22.105 12.035 24.085 12.375 26.125 C9.66620665 27.47939668 7.36566732 27.19001451 4.375 27.125 C5.365 26.795 6.355 26.465 7.375 26.125 C7.045 24.805 6.715 23.485 6.375 22.125 C5.055 21.795 3.735 21.465 2.375 21.125 C2.375 21.785 2.375 22.445 2.375 23.125 C-0.6733248 22.79839377 -1.63007689 22.11977806 -3.8125 19.875 C-6.13631487 16.34921192 -6.79088779 13.72858192 -6.35546875 9.51953125 C-6.17628906 8.66746094 -5.99710937 7.81539063 -5.8125 6.9375 C-5.64105469 6.07769531 -5.46960938 5.21789062 -5.29296875 4.33203125 C-4.30281623 1.06047469 -3.4460583 0.16409801 0 0 Z " fill="#A1AAAC" transform="translate(87.625,74.875)"/>
<path d="M0 0 C0.474375 0.45375 0.94875 0.9075 1.4375 1.375 C4.55661783 3.35297716 7.38022964 3.88927937 10.9765625 4.5703125 C13 5 13 5 15 6 C15 6.99 15 7.98 15 9 C15.66 9 16.32 9 17 9 C17.33 9.66 17.66 10.32 18 11 C20.33744294 11.46806645 22.69739079 11.82669794 25.0625 12.125 C26.99802734 12.37636719 26.99802734 12.37636719 28.97265625 12.6328125 C29.97167969 12.75398438 30.97070312 12.87515625 32 13 C32 13.99 32 14.98 32 16 C33.98 16 35.96 16 38 16 C37.360625 16.12375 36.72125 16.2475 36.0625 16.375 C35.381875 16.58125 34.70125 16.7875 34 17 C32.8509288 18.9254644 32.8509288 18.9254644 33 21 C19.74921073 22.07438832 19.74921073 22.07438832 15.69140625 19.58203125 C14 17.75 14 17.75 12.45703125 15.80859375 C8.15051499 10.46297169 0.21264847 8.35005616 -6 6 C-5.67 5.01 -5.34 4.02 -5 3 C-3.35 2.67 -1.7 2.34 0 2 C0 1.34 0 0.68 0 0 Z " fill="#171918" transform="translate(108,61)"/>
<path d="M0 0 C10.18264392 -0.11493787 20.27888559 0.11791141 30.43945312 0.79956055 C32.5270068 0.93930792 34.61496773 1.07078345 36.703125 1.20117188 C43.16482736 1.61377348 49.58813366 2.08283871 56 3 C56 3.33 56 3.66 56 4 C54.02 4.33 52.04 4.66 50 5 C53.43515002 5.62457273 56.49064814 6 60 6 C60.495 6.99 60.495 6.99 61 8 C50.84985746 8.23913948 40.85141408 7.58844026 30.74121094 6.77319336 C28.10913809 6.56122258 25.47653779 6.35717583 22.84375 6.15429688 C21.14840148 6.02129169 19.4530876 5.88784397 17.7578125 5.75390625 C16.98164581 5.6934462 16.20547913 5.63298615 15.40579224 5.57069397 C13.95065106 5.45246735 12.4961422 5.32607771 11.0425415 5.19021606 C9.05620983 5.00523466 7.06686419 4.8535649 5.07763672 4.70288086 C2 4 2 4 0.5625 1.9375 C0.376875 1.298125 0.19125 0.65875 0 0 Z " fill="#141A1E" transform="translate(128,119)"/>
<path d="M0 0 C29.10657378 0.74446009 29.10657378 0.74446009 39.23828125 2.59765625 C42.51672679 3.07527986 45.69171465 3.06164507 49 3 C49 2.67 49 2.34 49 2 C53.23587809 0.38186143 56.53410403 -0.20958227 61.0546875 0.0234375 C62.16328125 0.075 63.271875 0.1265625 64.4140625 0.1796875 C65.55617188 0.24414062 66.69828125 0.30859375 67.875 0.375 C69.62296875 0.46007812 69.62296875 0.46007812 71.40625 0.546875 C74.27150412 0.68778914 77.13580752 0.83914746 80 1 C80 1.33 80 1.66 80 2 C79.03320312 2.09796875 78.06640625 2.1959375 77.0703125 2.296875 C69.88456485 3.12216879 63.66183749 4.0667643 57.05078125 7.1953125 C55 8 55 8 51 8 C50.505 7.01 50.505 7.01 50 6 C49.34 6.33 48.68 6.66 48 7 C48 6.34 48 5.68 48 5 C47.113125 5.33 46.22625 5.66 45.3125 6 C42.29076653 6.91222143 40.11626294 7.18330958 37 7 C37 6.34 37 5.68 37 5 C35.35 5.99 33.7 6.98 32 8 C32 7.34 32 6.68 32 6 C29.8973294 5.63705686 27.79278943 5.28493028 25.6875 4.9375 C24.51574219 4.74027344 23.34398437 4.54304687 22.13671875 4.33984375 C18.97488124 3.77694302 18.97488124 3.77694302 16 5 C16 4.34 16 3.68 16 3 C14.783125 3.165 13.56625 3.33 12.3125 3.5 C9.18392164 3.89454541 6.15831196 4.09869725 3 4 C3 3.34 3 2.68 3 2 C2.01 1.67 1.02 1.34 0 1 C0 0.67 0 0.34 0 0 Z " fill="#819BA3" transform="translate(112,136)"/>
<path d="M0 0 C19.10864642 -0.6055557 37.9963975 1.23875905 57 3 C57 3.66 57 4.32 57 5 C49.57670253 5.11479326 42.37516246 4.86766617 35 4 C35 9.61 35 15.22 35 21 C42.26 21 49.52 21 57 21 C57 21.66 57 22.32 57 23 C45.79940111 23.22526344 34.73283777 22.97052453 23.5625 22.0625 C21.95580444 21.93222412 21.95580444 21.93222412 20.31665039 21.79931641 C15.80468215 21.41016139 11.43271431 20.95232345 7 20 C7 19.67 7 19.34 7 19 C24.85649203 18.81548975 24.85649203 18.81548975 33 20 C33 14.39 33 8.78 33 3 C29.844375 3.061875 29.844375 3.061875 26.625 3.125 C17.66563075 3.20804151 8.87346767 2.13840593 0 1 C0 0.67 0 0.34 0 0 Z " fill="#A0A6A9" transform="translate(131,83)"/>
<path d="M0 0 C9.79526196 -0.29235548 19.44624902 0.61560086 29.1875 1.5 C30.82352882 1.64497074 32.45959636 1.78950527 34.09570312 1.93359375 C38.06426593 2.28403957 42.03225948 2.64036872 46 3 C45 5 45 5 42.86328125 6.109375 C30.04120271 10.09768865 13.09467917 6.23336657 0 5 C0 3.35 0 1.7 0 0 Z " fill="#11191C" transform="translate(132,103)"/>
<path d="M0 0 C3.47561238 1.15853746 4.8790563 2.01496812 7 5 C8.21149001 9.1644969 8.49355799 11.07211098 6.4375 14.9375 C4 17 4 17 1.0625 17.625 C-3.12274796 16.77086776 -4.53837655 15.4752331 -7 12 C-7.68778033 8.97974726 -7.45536926 7.1875848 -7 4 C-4.8816003 0.65944663 -3.97354769 0 0 0 Z " fill="#171A1A" transform="translate(107,77)"/>
<path d="M0 0 C0.40347656 0.49757813 0.80695313 0.99515625 1.22265625 1.5078125 C2.88496843 3.20631877 2.88496843 3.20631877 5.12109375 3.1171875 C5.88550781 3.03726563 6.64992187 2.95734375 7.4375 2.875 C11.68517022 2.71588532 11.68517022 2.71588532 14.5625 5.3125 C16 8 16 8 16 11 C5.44 10.67 -5.12 10.34 -16 10 C-14 8 -14 8 -11.0625 6.5625 C-8.04788006 5.24625501 -8.04788006 5.24625501 -6.4375 3.3125 C-5 2 -5 2 -2.3125 1.8125 C-1.1678125 1.9053125 -1.1678125 1.9053125 0 2 C0 1.34 0 0.68 0 0 Z " fill="#050C10" transform="translate(128,123)"/>
<path d="M0 0 C2.58999563 2.12512462 3.77261962 3.67189188 4.34375 7.0078125 C4.47566149 9.98681361 4.35195458 12.37430297 2.875 15 C0.05480125 16.504106 -1.85610056 16.44912849 -5 16 C-7.30275556 14.1329009 -8.67823871 12.64352259 -10 10 C-10.44948064 3.81964117 -10.44948064 3.81964117 -8.9375 1.0625 C-5.79665674 -0.65989792 -3.50181214 -0.49148241 0 0 Z " fill="#0E1211" transform="translate(109,113)"/>
<path d="M0 0 C0.66 0.33 1.32 0.66 2 1 C4.204364 1.22950319 6.41392173 1.41075933 8.625 1.5625 C9.81351563 1.64628906 11.00203125 1.73007813 12.2265625 1.81640625 C13.59941406 1.90728516 13.59941406 1.90728516 15 2 C13.02 2.99 13.02 2.99 11 4 C11 9.61 11 15.22 11 21 C10.01 21 9.02 21 8 21 C8 18.69 8 16.38 8 14 C7.34 14 6.68 14 6 14 C6 14.99 6 15.98 6 17 C5.34 17 4.68 17 4 17 C4 16.34 4 15.68 4 15 C3.34 15 2.68 15 2 15 C-2.0633856 7.97191247 -2.0633856 7.97191247 -1.8125 4.125 C-1 2 -1 2 0 0 Z " fill="#747777" transform="translate(124,80)"/>
<path d="M0 0 C3.3 0 6.6 0 10 0 C11.20272819 2.40545638 11.10071472 3.94996953 11.0625 6.625 C11.05347656 7.44226562 11.04445312 8.25953125 11.03515625 9.1015625 C11.02355469 9.72804688 11.01195312 10.35453125 11 11 C7.78817851 12.90608098 5.46117397 13.22266247 1.75 13.125 C0.85796875 13.10695313 -0.0340625 13.08890625 -0.953125 13.0703125 C-1.96632812 13.03550781 -1.96632812 13.03550781 -3 13 C-3.31563182 7.73946963 -2.66590937 4.55426184 0 0 Z " fill="#262D2F" transform="translate(189,45)"/>
<path d="M0 0 C2.78460986 2.2073127 3.5072773 3.94267724 3.9375 7.4375 C4.18662792 10.68676409 4.15925359 11.72130621 2.5 14.625 C-0.96804901 16.53242696 -3.23087813 15.86979735 -7 15 C-7.66 13.35 -8.32 11.7 -9 10 C-8.34 10 -7.68 10 -7 10 C-7 6.7 -7 3.4 -7 0 C-4.26634878 -1.36682561 -2.89333621 -0.84683011 0 0 Z " fill="#1E2120" transform="translate(119,97)"/>
<path d="M0 0 C0.763125 0.103125 1.52625 0.20625 2.3125 0.3125 C1.9825 1.9625 1.6525 3.6125 1.3125 5.3125 C1.910625 4.961875 2.50875 4.61125 3.125 4.25 C5.3125 3.3125 5.3125 3.3125 8.3125 4.3125 C9.125 6.25 9.125 6.25 9.3125 8.3125 C8.6525 8.9725 7.9925 9.6325 7.3125 10.3125 C7.6425 11.3025 7.9725 12.2925 8.3125 13.3125 C7.3225 14.7975 7.3225 14.7975 6.3125 16.3125 C2.77735766 16.70529359 0.23493314 16.7008929 -3.0625 15.3125 C-5.52247225 12.28484185 -5.871544 9.09644468 -5.6875 5.3125 C-3.86379179 0.44927812 -3.86379179 0.44927812 0 0 Z " fill="#5A6064" transform="translate(87.6875,74.6875)"/>
<path d="M0 0 C4.29 0 8.58 0 13 0 C13 2.97 13 5.94 13 9 C5.08 8.67 -2.84 8.34 -11 8 C-10.01 7.67 -9.02 7.34 -8 7 C-8 5.68 -8 4.36 -8 3 C-5.36 2.67 -2.72 2.34 0 2 C0 1.34 0 0.68 0 0 Z " fill="#141D21" transform="translate(184,129)"/>
<path d="M0 0 C0.33 0.66 0.66 1.32 1 2 C1.99 2.33 2.98 2.66 4 3 C3.01 3.495 3.01 3.495 2 4 C1.65373409 7.00030058 1.65373409 7.00030058 3.5 8.5625 C3.995 9.036875 4.49 9.51125 5 10 C5 10.66 5 11.32 5 12 C5.99 12 6.98 12 8 12 C8 11.34 8 10.68 8 10 C9.32 9.34 10.64 8.68 12 8 C12 11.3 12 14.6 12 18 C11.01 18.33 10.02 18.66 9 19 C8.67 17.35 8.34 15.7 8 14 C7.67 14.99 7.34 15.98 7 17 C4 18 4 18 3 18 C3 18.66 3 19.32 3 20 C0.6875 21.125 0.6875 21.125 -2 22 C-2.99 21.34 -3.98 20.68 -5 20 C-4.505 18.515 -4.505 18.515 -4 17 C-3.01 17 -2.02 17 -1 17 C-1 13.37 -1 9.74 -1 6 C-1.66 6 -2.32 6 -3 6 C-2.34 7.32 -1.68 8.64 -1 10 C-1.99 9.67 -2.98 9.34 -4 9 C-3.25 4.25 -3.25 4.25 -1 2 C-0.67 1.34 -0.34 0.68 0 0 Z " fill="#869092" transform="translate(100,89)"/>
<path d="M0 0 C0.74056641 0.02255859 1.48113281 0.04511719 2.24414062 0.06835938 C4.05947357 0.1269185 5.87375681 0.21659114 7.6875 0.3125 C7.0275 1.6325 6.3675 2.9525 5.6875 4.3125 C5.6875 3.6525 5.6875 2.9925 5.6875 2.3125 C3.70763918 2.42597619 1.72858402 2.5535935 -0.25 2.6875 C-1.35214844 2.75710937 -2.45429687 2.82671875 -3.58984375 2.8984375 C-4.48832031 3.03507812 -5.38679688 3.17171875 -6.3125 3.3125 C-6.6425 3.9725 -6.9725 4.6325 -7.3125 5.3125 C-6.3225 5.6425 -5.3325 5.9725 -4.3125 6.3125 C-5.3025 6.8075 -5.3025 6.8075 -6.3125 7.3125 C-6.085625 8.075625 -5.85875 8.83875 -5.625 9.625 C-5.3125 12.3125 -5.3125 12.3125 -6.5625 14.0625 C-8.3125 15.3125 -8.3125 15.3125 -11.3125 16.3125 C-11.6425 16.9725 -11.9725 17.6325 -12.3125 18.3125 C-11.6525 18.6425 -10.9925 18.9725 -10.3125 19.3125 C-11.3025 19.3125 -12.2925 19.3125 -13.3125 19.3125 C-13.44813775 17.08502674 -13.54477853 14.85515677 -13.625 12.625 C-13.68300781 11.38363281 -13.74101563 10.14226563 -13.80078125 8.86328125 C-13.3125 5.3125 -13.3125 5.3125 -11.3125 2.375 C-7.35666849 -0.34463416 -4.66762336 -0.27113094 0 0 Z " fill="#32373A" transform="translate(114.3125,48.6875)"/>
<path d="M0 0 C1.8871875 0.0309375 1.8871875 0.0309375 3.8125 0.0625 C2.8225 4.3525 1.8325 8.6425 0.8125 13.0625 C-2.4875 13.0625 -5.7875 13.0625 -9.1875 13.0625 C-8.03455882 3.18014706 -8.03455882 3.18014706 -7.1875 1.0625 C-4.43671116 0.14557039 -2.82801087 -0.04636083 0 0 Z " fill="#20292A" transform="translate(154.1875,47.9375)"/>
<path d="M0 0 C12.92830415 -0.23027242 25.67780313 0.4821579 38.5625 1.5 C40.46024164 1.64511855 42.35802804 1.78965298 44.25585938 1.93359375 C48.83778146 2.28235789 53.41903225 2.63892589 58 3 C58 3.66 58 4.32 58 5 C47.5943825 5.27198842 37.26265575 4.55014624 26.88793945 3.828125 C23.91347529 3.623346 20.93830551 3.43259062 17.96289062 3.2421875 C16.06764998 3.11283134 14.17246521 2.98265323 12.27734375 2.8515625 C10.94617775 2.76861435 10.94617775 2.76861435 9.58811951 2.68399048 C8.76618607 2.62407928 7.94425262 2.56416809 7.09741211 2.50244141 C6.37637802 2.45358795 5.65534393 2.4047345 4.91246033 2.35440063 C3 2 3 2 0 0 Z " fill="#969A9E" transform="translate(130,117)"/>
<path d="M0 0 C4 8 4 8 4 13 C1.03 13 -1.94 13 -5 13 C-6.81242323 8.9811485 -8.33501617 5.38889325 -9 1 C-4.545 0.505 -4.545 0.505 0 0 Z " fill="#BBC2C3" transform="translate(185,67)"/>
<path d="M0 0 C-0.66 3.96 -1.32 7.92 -2 12 C-5.3 12.33 -8.6 12.66 -12 13 C-11.34 9.04 -10.68 5.08 -10 1 C-6.52674819 -0.1577506 -3.63932552 -0.06866652 0 0 Z " fill="#272D2E" transform="translate(177,47)"/>
<path d="M0 0 C0.99 0 1.98 0 3 0 C3 18.48 3 36.96 3 56 C2.67 56 2.34 56 2 56 C1.505 38.675 1.505 38.675 1 21 C-1.64 21 -4.28 21 -7 21 C-7 20.34 -7 19.68 -7 19 C-4.36 19 -1.72 19 1 19 C0.69075786 16.89535207 0.3774944 14.7912947 0.0625 12.6875 C-0.11152344 11.51574219 -0.28554687 10.34398438 -0.46484375 9.13671875 C-0.92093031 5.98358597 -0.92093031 5.98358597 -2 3 C-1.34 2.01 -0.68 1.02 0 0 Z " fill="#323E41" transform="translate(195,81)"/>
<path d="M0 0 C-0.30769707 1.81332154 -0.62129064 3.62564345 -0.9375 5.4375 C-1.11152344 6.44683594 -1.28554687 7.45617188 -1.46484375 8.49609375 C-2 11 -2 11 -3 12 C-4.51928038 12.07179964 -6.04167482 12.08392007 -7.5625 12.0625 C-8.38878906 12.05347656 -9.21507812 12.04445313 -10.06640625 12.03515625 C-10.70449219 12.02355469 -11.34257812 12.01195312 -12 12 C-12.48 4.8 -12.48 4.8 -10.5 1.5 C-6.85991277 -0.68405234 -4.20345267 -0.28023018 0 0 Z " fill="#B9BFC0" transform="translate(168,47)"/>
<path d="M0 0 C2.97 0 5.94 0 9 0 C9.67354499 1.43429001 10.33859701 2.87257057 11 4.3125 C11.556875 5.51326172 11.556875 5.51326172 12.125 6.73828125 C13 9 13 9 13 12 C9.7 11.67 6.4 11.34 3 11 C0 3.375 0 3.375 0 0 Z " fill="#BCC1C4" transform="translate(156,67)"/>
<path d="M0 0 C0.99 0.33 1.98 0.66 3 1 C3 2.32 3 3.64 3 5 C5.475 5.495 5.475 5.495 8 6 C6.8125 7.5 6.8125 7.5 5 9 C2.3125 9.1875 2.3125 9.1875 0 9 C0.33 9.99 0.66 10.98 1 12 C0.67 12.99 0.34 13.98 0 15 C-1.99541868 15.68025637 -3.99617991 16.34490497 -6 17 C-7.2684375 18.0209375 -7.2684375 18.0209375 -8.5625 19.0625 C-11.14737578 21.11714485 -12.76449482 21.63022798 -16 22 C-14.948125 20.9790625 -14.948125 20.9790625 -13.875 19.9375 C-12.91166735 18.9632514 -11.95374953 17.98363203 -11 17 C-10.49597656 16.48050781 -9.99195312 15.96101563 -9.47265625 15.42578125 C-5.90786446 11.53444365 -3.72800899 7.71529664 -1.76171875 2.8203125 C-1 1 -1 1 0 0 Z " fill="#4A5456" transform="translate(128,110)"/>
<path d="M0 0 C-0.11398665 1.62580966 -0.24155659 3.25067157 -0.375 4.875 C-0.44460937 5.77992187 -0.51421875 6.68484375 -0.5859375 7.6171875 C-1 10 -1 10 -3 12 C-5.68839385 12.26991906 -8.29141936 12.08737357 -11 12 C-11.25 4.375 -11.25 4.375 -9 1 C-5.8035914 -0.06546953 -3.34252724 -0.07427838 0 0 Z " fill="#B9C0C2" transform="translate(187,46)"/>
<path d="M0 0 C7.08975093 -0.59081258 11.74545729 1.40192916 17.28515625 5.82421875 C19.22799185 7.51349203 21.13063564 9.23006991 23 11 C22.42655063 13.86724686 22.1385485 14.8614515 20 17 C19.21689453 16.00419922 19.21689453 16.00419922 18.41796875 14.98828125 C12.96549754 8.4472256 8.02123447 4.84866271 0 2 C0 1.34 0 0.68 0 0 Z " fill="#8E9090" transform="translate(101,68)"/>
<path d="M0 0 C3.3 0 6.6 0 10 0 C13 7.5 13 7.5 13 12 C10.36 12 7.72 12 5 12 C4.16180842 10.37750059 3.3295884 8.75191503 2.5 7.125 C2.0359375 6.22007813 1.571875 5.31515625 1.09375 4.3828125 C0 2 0 2 0 0 Z " fill="#BEC3C3" transform="translate(135,65)"/>
<path d="M0 0 C12.02204207 -0.27642762 23.89656909 0.59047756 35.875 1.5 C37.83460083 1.64499943 39.79423612 1.78953399 41.75390625 1.93359375 C46.50301782 2.28371234 51.2516208 2.6400906 56 3 C56 3.66 56 4.32 56 5 C37.22204774 5.4905706 18.60557968 3.34754965 0 1 C0 0.67 0 0.34 0 0 Z " fill="#979CA0" transform="translate(132,124)"/>
<path d="M0 0 C2.62434747 0.36197896 3.82013689 0.82656057 5.75 2.6875 C7.40602592 5.75114795 7.4918074 7.55734817 7 11 C5 13.875 5 13.875 3 16 C1.68 15.67 0.36 15.34 -1 15 C-1.02693575 12.87506859 -1.04636628 10.75004088 -1.0625 8.625 C-1.07410156 7.44164063 -1.08570312 6.25828125 -1.09765625 5.0390625 C-1 2 -1 2 0 0 Z " fill="#2A3436" transform="translate(80,92)"/>
<path d="M0 0 C2.375 1.5625 2.375 1.5625 4 4 C4.32695874 6.75805517 4.18630777 9.20538347 4 12 C0.44947202 11.40024865 -1.54446997 10.02728246 -4.25 7.6875 C-4.95640625 7.09324219 -5.6628125 6.49898438 -6.390625 5.88671875 C-8 4 -8 4 -8 0 C-5.02898609 -1.48550695 -3.16565278 -0.82306972 0 0 Z " fill="#2C3B3E" transform="translate(91,111)"/>
<path d="M0 0 C11.89317654 -0.24921674 23.6906271 0.09774961 35.5625 0.875 C36.84084717 0.95347168 38.11919434 1.03194336 39.4362793 1.11279297 C40.63422119 1.19674316 41.83216309 1.28069336 43.06640625 1.3671875 C44.6743103 1.47716064 44.6743103 1.47716064 46.31469727 1.58935547 C49 2 49 2 52 4 C39.72858425 4.22334225 27.55888534 3.99309403 15.3125 3.125 C14.1371167 3.04652832 12.9617334 2.96805664 11.75073242 2.88720703 C10.65349854 2.80325684 9.55626465 2.71930664 8.42578125 2.6328125 C7.45036377 2.55949707 6.47494629 2.48618164 5.4699707 2.41064453 C3 2 3 2 0 0 Z " fill="#9BA2A5" transform="translate(136,109)"/>
<path d="M0 0 C-0.45822468 3.46941546 -0.89131683 6.67395049 -2 10 C-2.66 10 -3.32 10 -4 10 C-4 10.66 -4 11.32 -4 12 C-8.75 11.125 -8.75 11.125 -11 10 C-11.48309179 3.59903382 -11.48309179 3.59903382 -9.4375 1.0625 C-6.19917389 -0.34907805 -3.49186021 -0.20145347 0 0 Z " fill="#BBC0C1" transform="translate(147,49)"/>
<path d="M0 0 C6.76594019 -0.11381955 13.28837062 0.11978631 20 1 C20 2.65 20 4.3 20 6 C13.4 5.67 6.8 5.34 0 5 C0 3.35 0 1.7 0 0 Z " fill="#030708" transform="translate(132,103)"/>
<path d="M0 0 C2.14576637 -0.02685938 4.29162645 -0.04633088 6.4375 -0.0625 C7.63246094 -0.07410156 8.82742187 -0.08570312 10.05859375 -0.09765625 C13 0 13 0 14 1 C14.07205511 2.68608966 14.08386068 4.37500659 14.0625 6.0625 C14.05347656 6.98160156 14.04445312 7.90070313 14.03515625 8.84765625 C14.02355469 9.55792969 14.01195312 10.26820312 14 11 C13.01 11.495 13.01 11.495 12 12 C11.67 10.02 11.34 8.04 11 6 C10.28972656 6.01160156 9.57945312 6.02320312 8.84765625 6.03515625 C7.92855469 6.04417969 7.00945312 6.05320312 6.0625 6.0625 C5.14597656 6.07410156 4.22945312 6.08570312 3.28515625 6.09765625 C1 6 1 6 0 5 C-0.04063832 3.33382885 -0.042721 1.66611905 0 0 Z " fill="#272D2E" transform="translate(187,68)"/>
<path d="M0 0 C5.94 0.33 11.88 0.66 18 1 C18 1.33 18 1.66 18 2 C16.35 2 14.7 2 13 2 C13 3.32 13 4.64 13 6 C15.31 6 17.62 6 20 6 C20 6.33 20 6.66 20 7 C17.62492145 7.02719556 15.25016036 7.04693247 12.875 7.0625 C11.87726563 7.07506836 11.87726563 7.07506836 10.859375 7.08789062 C6.79318646 7.10782292 2.9879908 6.78890161 -1 6 C-0.67 4.02 -0.34 2.04 0 0 Z " fill="#090C0E" transform="translate(131,110)"/>
<path d="M0 0 C2.9375 0.375 2.9375 0.375 6 1 C6.33 1.66 6.66 2.32 7 3 C9.58605332 3.4683265 9.58605332 3.4683265 12.5625 3.625 C14.08037109 3.73714844 14.08037109 3.73714844 15.62890625 3.8515625 C16.80259766 3.92503906 16.80259766 3.92503906 18 4 C18 5.32 18 6.64 18 8 C18.66 8.66 19.32 9.32 20 10 C9.57841484 10.91062395 9.57841484 10.91062395 5.8671875 8.76953125 C4.25 7.1875 4.25 7.1875 2 4 C2 3.01 2 2.02 2 1 C1.34 0.67 0.68 0.34 0 0 Z " fill="#090B0B" transform="translate(118,72)"/>
<path d="M0 0 C9.39605802 -0.10731538 18.64087671 0.00736571 28 1 C28 1.33 28 1.66 28 2 C24.04 2 20.08 2 16 2 C16 2.66 16 3.32 16 4 C17.65 4 19.3 4 21 4 C21 4.33 21 4.66 21 5 C6.64646465 5.21212121 6.64646465 5.21212121 2 4 C0.8203125 1.953125 0.8203125 1.953125 0 0 Z " fill="#0C0F11" transform="translate(128,119)"/>
<path d="M0 0 C2.97 0.33 5.94 0.66 9 1 C9 1.33 9 1.66 9 2 C14.94 2.99 14.94 2.99 21 4 C21 4.33 21 4.66 21 5 C19.35 5 17.7 5 16 5 C17.6327851 8.74667202 17.6327851 8.74667202 20 12 C23.5900518 12.28593333 27.18014845 12.44910171 30.77734375 12.62109375 C34 13 34 13 36 15 C33.60385874 15.05425226 31.20896147 15.09379027 28.8125 15.125 C27.80219727 15.15013672 27.80219727 15.15013672 26.77148438 15.17578125 C22.74072072 15.21510577 19.53165088 15.0227319 16 13 C14.25 9.4375 14.25 9.4375 13 6 C12.67 5.67 12.34 5.34 12 5 C10.54044555 5.05814958 9.08202413 5.14626365 7.625 5.25 C5.16796875 5.296875 5.16796875 5.296875 3 5 C0.9375 2.5 0.9375 2.5 0 0 Z " fill="#5C666A" transform="translate(128,122)"/>
<path d="M0 0 C-0.99 0.495 -0.99 0.495 -2 1 C-2.31241371 3.54941373 -2.51303421 6.00361513 -2.625 8.5625 C-2.66367188 9.27341797 -2.70234375 9.98433594 -2.7421875 10.71679688 C-2.83671783 12.47742425 -2.91945817 14.23867728 -3 16 C-3.99 15.67 -4.98 15.34 -6 15 C-6.73046875 13.15234375 -6.73046875 13.15234375 -7.1875 10.9375 C-7.34605469 10.20402344 -7.50460938 9.47054687 -7.66796875 8.71484375 C-7.77753906 8.14894531 -7.88710937 7.58304687 -8 7 C-8 8.98 -8 10.96 -8 13 C-8.66 12.67 -9.32 12.34 -10 12 C-10.28780387 8.94927903 -10.43137565 6.04119836 -10 3 C-6.8602918 0.0397037 -4.22507858 -0.36214959 0 0 Z " fill="#7C8689" transform="translate(82,91)"/>
<path d="M0 0 C3.63 0 7.26 0 11 0 C11.1875 2.875 11.1875 2.875 11 6 C7.5647952 8.29013653 6.014669 8.17842973 2 8 C0.23537317 4.91190305 0 3.76687864 0 0 Z " fill="#2F3636" transform="translate(166,66)"/>
<path d="M0 0 C3.74556116 1.6230765 5.2620278 3.32726302 6.9375 7.125 C7.91908645 9.34495729 7.91908645 9.34495729 11 10 C10.67 10.99 10.34 11.98 10 13 C6.64877744 12.6953434 4.46578975 12.32731171 1.6875 10.375 C-0.51456398 7.27579885 -0.78738874 4.75613218 -1 1 C-0.67 0.67 -0.34 0.34 0 0 Z " fill="#798A8C" transform="translate(81,114)"/>
<path d="M0 0 C2.31 0 4.62 0 7 0 C7 5.61 7 11.22 7 17 C6.01 17 5.02 17 4 17 C3.87882813 16.27554688 3.75765625 15.55109375 3.6328125 14.8046875 C2.75060421 9.71502427 1.83557653 4.85116654 0 0 Z " fill="#070908" transform="translate(128,84)"/>
<path d="M0 0 C1.88391785 3.26545761 2.49287967 6.28111761 3 10 C5.85778033 10.68493373 5.85778033 10.68493373 9 11 C9.99 10.34 10.98 9.68 12 9 C11.72510809 13.03174806 11.46508424 14.56894631 8.4375 17.375 C7.633125 17.91125 6.82875 18.4475 6 19 C5.34 18.01 4.68 17.02 4 16 C3.34 16 2.68 16 2 16 C2 15.34 2 14.68 2 14 C1.34 13.67 0.68 13.34 0 13 C0 12.34 0 11.68 0 11 C-0.27940115 8.69601515 -0.57633259 6.39480399 -0.87890625 4.09375 C-1 2 -1 2 0 0 Z " fill="#9BA4A7" transform="translate(74,96)"/>
<path d="M0 0 C3.3 0 6.6 0 10 0 C10.38133299 1.9914056 10.71325582 3.99279077 11 6 C10 7 10 7 6.4375 7.0625 C5.303125 7.041875 4.16875 7.02125 3 7 C3 7.99 3 8.98 3 10 C2.34 9.67 1.68 9.34 1 9 C0.40227901 6.0170339 0.25662185 3.03669195 0 0 Z " fill="#1C2224" transform="translate(188,74)"/>
<path d="M0 0 C0.67546875 0.08378906 1.3509375 0.16757813 2.046875 0.25390625 C2.93890625 0.35574219 3.8309375 0.45757812 4.75 0.5625 C6.07257813 0.71912109 6.07257813 0.71912109 7.421875 0.87890625 C9.88432451 0.99456676 11.66538064 0.73638695 14 0 C13.67 1.65 13.34 3.3 13 5 C11.02 5.66 9.04 6.32 7 7 C7 7.66 7 8.32 7 9 C6.01 9 5.02 9 4 9 C3.896875 8.360625 3.79375 7.72125 3.6875 7.0625 C3.460625 6.381875 3.23375 5.70125 3 5 C2.01 4.67 1.02 4.34 0 4 C0 2.68 0 1.36 0 0 Z " fill="#A3AAAC" transform="translate(101,92)"/>
<path d="M0 0 C1.3271261 3.9813783 1.06915913 7.85045227 1 12 C-0.6875 12.8125 -0.6875 12.8125 -3 13 C-5.75 10.5625 -5.75 10.5625 -8 8 C-6.10186436 4.39354228 -4.81257069 2.52502828 -1 1 C-0.67 0.67 -0.34 0.34 0 0 Z " fill="#25292B" transform="translate(135,52)"/>
<path d="M0 0 C1.66289062 0.07734375 1.66289062 0.07734375 3.359375 0.15625 C4.50148437 0.22070312 5.64359375 0.28515625 6.8203125 0.3515625 C8.56828125 0.43664062 8.56828125 0.43664062 10.3515625 0.5234375 C13.21681662 0.66435164 16.08112002 0.81570996 18.9453125 0.9765625 C18.9453125 1.3065625 18.9453125 1.6365625 18.9453125 1.9765625 C14.90642724 2.54048233 10.8640591 3.07372832 6.8203125 3.6015625 C5.10714844 3.84132812 5.10714844 3.84132812 3.359375 4.0859375 C2.25078125 4.22773438 1.1421875 4.36953125 0 4.515625 C-1.01594238 4.65178223 -2.03188477 4.78793945 -3.07861328 4.92822266 C-6.46404437 4.98321161 -8.92101388 4.20633533 -12.0546875 2.9765625 C-12.0546875 2.6465625 -12.0546875 2.3165625 -12.0546875 1.9765625 C-7.81880941 0.35842393 -4.52058347 -0.23301977 0 0 Z " fill="#758E93" transform="translate(173.0546875,136.0234375)"/>
<path d="M0 0 C1.77049689 -0.05410687 3.54146849 -0.09284119 5.3125 -0.125 C6.29863281 -0.14820313 7.28476563 -0.17140625 8.30078125 -0.1953125 C11 0 11 0 14 2 C13.06027344 2.19916016 13.06027344 2.19916016 12.1015625 2.40234375 C10.87566406 2.66724609 10.87566406 2.66724609 9.625 2.9375 C8.81289062 3.11152344 8.00078125 3.28554687 7.1640625 3.46484375 C4.970537 3.92330693 4.970537 3.92330693 3 5 C3 5.66 3 6.32 3 7 C0.03 7 -2.94 7 -6 7 C-3.75 2.5 -3.75 2.5 0 1 C0 0.67 0 0.34 0 0 Z " fill="#0D1115" transform="translate(173,129)"/>
<path d="M0 0 C-0.33 0.66 -0.66 1.32 -1 2 C0.0725 1.79375 1.145 1.5875 2.25 1.375 C5.87619096 1.0123809 7.08291076 1.01637931 10 3 C8.9275 3.268125 7.855 3.53625 6.75 3.8125 C3.40138041 4.8728962 1.44827404 5.55172596 -1 8 C-1.79623822 10.09415804 -1.79623822 10.09415804 -2 12 C-2.99 11.67 -3.98 11.34 -5 11 C-4.34 11 -3.68 11 -3 11 C-3.90428836 5.38264724 -3.90428836 5.38264724 -7.125 1 C-7.74375 0.67 -8.3625 0.34 -9 0 C-5.93109813 -1.53445094 -3.29905734 -0.54984289 0 0 Z " fill="#919C9E" transform="translate(98,110)"/>
<path d="M0 0 C0.5534764 2.07553648 1 3.84365964 1 6 C0.01 6.33 -0.98 6.66 -2 7 C-1.01 7.33 -0.02 7.66 1 8 C3.73814047 10.53778873 5.92595707 12.8889356 8 16 C2.60490463 16.49046322 2.60490463 16.49046322 -0.3125 14.125 C-3.29711263 10.36659891 -3.33571814 7.78398343 -3 3 C-1.5 1.0625 -1.5 1.0625 0 0 Z " fill="#283132" transform="translate(102,113)"/>
<path d="M0 0 C0.66 0.66 1.32 1.32 2 2 C2.99 2.66 3.98 3.32 5 4 C4.030625 4.309375 3.06125 4.61875 2.0625 4.9375 C-0.84065792 5.69523342 -0.84065792 5.69523342 -2 7 C-6.03160191 7.26293056 -7.55892734 7.29404844 -11 5 C-11 3.68 -11 2.36 -11 1 C-7.26779887 0.12183503 -3.83453269 -0.25563551 0 0 Z " fill="#23272C" transform="translate(155,111)"/>
<path d="M0 0 C0.40729228 2.32156597 0.74438677 4.6568787 1 7 C-5.06741573 8.51685393 -5.06741573 8.51685393 -8 7 C-9.25 3.9375 -9.25 3.9375 -10 1 C-8.71073008 0.63720544 -7.41846728 0.28503302 -6.125 -0.0625 C-5.40570313 -0.25972656 -4.68640625 -0.45695312 -3.9453125 -0.66015625 C-2 -1 -2 -1 0 0 Z " fill="#222729" transform="translate(178,73)"/>
<path d="M0 0 C1.98 0.66 3.96 1.32 6 2 C5.814375 2.7425 5.62875 3.485 5.4375 4.25 C5.00796892 6.94990963 5.14877026 8.44631077 6 11 C5.01 11.33 4.02 11.66 3 12 C1.29159719 10.36587557 0.06546953 9.13093906 -1 7 C-1.33 7 -1.66 7 -2 7 C-2 5.35 -2 3.7 -2 2 C-1.34 2 -0.68 2 0 2 C0 1.34 0 0.68 0 0 Z " fill="#717B7D" transform="translate(89,95)"/>
<path d="M0 0 C1.8871875 0.0309375 1.8871875 0.0309375 3.8125 0.0625 C3.1525 2.7025 2.4925 5.3425 1.8125 8.0625 C0.884375 7.69125 -0.04375 7.32 -1 6.9375 C-2.051875 6.64875 -3.10375 6.36 -4.1875 6.0625 C-5.1775 6.7225 -6.1675 7.3825 -7.1875 8.0625 C-8.22098696 4.96203913 -8.36505913 4.00639782 -7.1875 1.0625 C-4.43671116 0.14557039 -2.82801087 -0.04636083 0 0 Z " fill="#363C3E" transform="translate(154.1875,47.9375)"/>
<path d="M0 0 C0.66 0 1.32 0 2 0 C3.80230168 3.82989106 4.19622241 6.78121808 4 11 C3.39671875 10.84402344 2.7934375 10.68804687 2.171875 10.52734375 C1.37265625 10.33269531 0.5734375 10.13804688 -0.25 9.9375 C-1.03890625 9.74027344 -1.8278125 9.54304688 -2.640625 9.33984375 C-5.10394822 8.98502733 -6.65604132 9.23122456 -9 10 C-9.33 9.34 -9.66 8.68 -10 8 C-9.01 7.67 -8.02 7.34 -7 7 C-6.34 6.34 -5.68 5.68 -5 5 C-4.34 5.33 -3.68 5.66 -3 6 C-3.33 4.68 -3.66 3.36 -4 2 C-2.35 2.33 -0.7 2.66 1 3 C0.67 2.01 0.34 1.02 0 0 Z " fill="#A2ACAD" transform="translate(106,103)"/>
<path d="M0 0 C3.96 0 7.92 0 12 0 C11.01 0.495 11.01 0.495 10 1 C9.690625 1.639375 9.38125 2.27875 9.0625 2.9375 C8 5 8 5 5 7 C2.3125 7.125 2.3125 7.125 0 7 C0 4.69 0 2.38 0 0 Z " fill="#2B2E33" transform="translate(176,113)"/>
<path d="M0 0 C3.75376152 1.25125384 4.24073289 2.5652404 6 6 C6 6.66 6 7.32 6 8 C1.48382401 8.07654536 -2.59085217 8.10228696 -7 7 C-7 5.68 -7 4.36 -7 3 C-5.68 3.33 -4.36 3.66 -3 4 C-2.01 2.68 -1.02 1.36 0 0 Z " fill="#3B3F3E" transform="translate(133,66)"/>
<path d="M0 0 C2.560379 0.69474296 2.560379 0.69474296 4.75 -0.125 C5.678125 -0.310625 5.678125 -0.310625 6.625 -0.5 C8.375 0.8125 8.375 0.8125 9.625 2.5 C9.625 3.16 9.625 3.82 9.625 4.5 C6.655 5.82 3.685 7.14 0.625 8.5 C0.955 6.85 1.285 5.2 1.625 3.5 C-0.025 3.5 -1.675 3.5 -3.375 3.5 C-3.705 2.51 -4.035 1.52 -4.375 0.5 C-2.375 -0.5 -2.375 -0.5 0 0 Z " fill="#A4B2B2" transform="translate(87.375,72.5)"/>
<path d="M0 0 C0.33 0.99 0.66 1.98 1 3 C4.51190809 4.22969878 4.51190809 4.22969878 8 5 C8 4.34 8 3.68 8 3 C8.66 3 9.32 3 10 3 C10 3.66 10 4.32 10 5 C11.32 5.33 12.64 5.66 14 6 C9.545 6.495 9.545 6.495 5 7 C9.29 7.33 13.58 7.66 18 8 C18 8.33 18 8.66 18 9 C15.69 9 13.38 9 11 9 C10.67 10.32 10.34 11.64 10 13 C10 11.68 10 10.36 10 9 C6.7 9 3.4 9 0 9 C0 6.03 0 3.06 0 0 Z " fill="#929EA0" transform="translate(135,56)"/>
<path d="M0 0 C0.99 0.33 1.98 0.66 3 1 C3.8125 2.9375 3.8125 2.9375 4 5 C3.34 5.66 2.68 6.32 2 7 C2.33 7.99 2.66 8.98 3 10 C2.01 10.99 1.02 11.98 0 13 C0 12.34 0 11.68 0 11 C-0.66 10.67 -1.32 10.34 -2 10 C-3.04808041 8.02477154 -4.0520411 6.02518491 -5 4 C-3.36587557 2.29159719 -2.13093906 1.06546953 0 0 Z " fill="#606F70" transform="translate(93,78)"/>
<path d="M0 0 C22.59489033 -0.20638953 22.59489033 -0.20638953 33 1 C33 1.33 33 1.66 33 2 C24.76299255 3.68964255 16.71726931 3.00856449 8.4375 2 C7.61958984 1.90460938 6.80167969 1.80921875 5.95898438 1.7109375 C3.97211325 1.47855491 1.98597206 1.23994484 0 1 C0 0.67 0 0.34 0 0 Z " fill="#9FA3A3" transform="translate(131,83)"/>
<path d="M0 0 C0.33 0.66 0.66 1.32 1 2 C-1.2834326 3.8414779 -3.06034619 5.01071848 -6.0546875 4.9765625 C-7.58603963 4.78050704 -9.11484456 4.56364816 -10.640625 4.328125 C-14.11404305 3.84506686 -17.49770163 3.93632185 -21 4 C-20.67 3.34 -20.34 2.68 -20 2 C-18.05053711 1.58935547 -18.05053711 1.58935547 -15.52734375 1.3671875 C-14.62822266 1.28339844 -13.72910156 1.19960937 -12.80273438 1.11328125 C-11.85720703 1.03464844 -10.91167969 0.95601562 -9.9375 0.875 C-8.5134082 0.74544922 -8.5134082 0.74544922 -7.06054688 0.61328125 C-4.70764908 0.40045632 -2.35431405 0.19642969 0 0 Z " fill="#89A3A8" transform="translate(197,137)"/>
<path d="M0 0 C0.93457031 0.00322266 1.86914062 0.00644531 2.83203125 0.00976562 C3.80011719 0.01814453 4.76820313 0.02652344 5.765625 0.03515625 C6.74917969 0.03966797 7.73273438 0.04417969 8.74609375 0.04882812 C11.16933291 0.06059142 13.59244773 0.07702941 16.015625 0.09765625 C10.015625 4.09765625 10.015625 4.09765625 5.015625 4.09765625 C4.685625 3.43765625 4.355625 2.77765625 4.015625 2.09765625 C3.025625 2.59265625 3.025625 2.59265625 2.015625 3.09765625 C2.015625 2.43765625 2.015625 1.77765625 2.015625 1.09765625 C1.12875 1.42765625 0.241875 1.75765625 -0.671875 2.09765625 C-3.69360847 3.00987768 -5.86811206 3.28096583 -8.984375 3.09765625 C-8.984375 2.43765625 -8.984375 1.77765625 -8.984375 1.09765625 C-5.9161112 0.20015803 -3.19167524 -0.01946143 0 0 Z " fill="#92AAB2" transform="translate(157.984375,139.90234375)"/>
<path d="M0 0 C1.65 0 3.3 0 5 0 C4.01 0.33 3.02 0.66 2 1 C2 6.28 2 11.56 2 17 C3.65 17 5.3 17 7 17 C4.42786866 18.61949011 3.32330841 19.04408751 0.25 18.625 C-0.4925 18.41875 -1.235 18.2125 -2 18 C-1.34 17.67 -0.68 17.34 0 17 C0 11.39 0 5.78 0 0 Z " fill="#828584" transform="translate(135,84)"/>
<path d="M0 0 C1.23556641 0.01740234 1.23556641 0.01740234 2.49609375 0.03515625 C3.32238281 0.04417969 4.14867187 0.05320313 5 0.0625 C5.63808594 0.07410156 6.27617187 0.08570313 6.93359375 0.09765625 C6.93359375 0.75765625 6.93359375 1.41765625 6.93359375 2.09765625 C5.96421875 2.53078125 4.99484375 2.96390625 3.99609375 3.41015625 C0.6562761 4.79914235 0.6562761 4.79914235 -0.06640625 8.09765625 C-1.38640625 8.09765625 -2.70640625 8.09765625 -4.06640625 8.09765625 C-3.05416559 0.14433675 -3.05416559 0.14433675 0 0 Z " fill="#272B2A" transform="translate(130.06640625,49.90234375)"/>
<path d="M0 0 C6.6 0 13.2 0 20 0 C19.34 1.32 18.68 2.64 18 4 C11.59370576 4.20852314 6.07027358 4.1583195 0 2 C0 1.34 0 0.68 0 0 Z " fill="#384C52" transform="translate(147,136)"/>
<path d="M0 0 C5.63000273 -0.34469404 9.14886197 0.2833627 14 3 C14.9375 5.1875 14.9375 5.1875 15 7 C9.45949887 6.43174347 4.96284034 4.37113483 0 2 C0 1.34 0 0.68 0 0 Z " fill="#7D7F7F" transform="translate(101,68)"/>
<path d="M0 0 C-0.33 0.66 -0.66 1.32 -1 2 C-5.93394639 3.6446488 -9.91874796 4.3450373 -15 3 C-15 3.66 -15 4.32 -15 5 C-17.31 5 -19.62 5 -22 5 C-20.66666667 4.33333333 -19.33333333 3.66666667 -18 3 C-17.13375 2.484375 -16.2675 1.96875 -15.375 1.4375 C-10.89398506 -0.47108044 -4.5851832 -2.2925916 0 0 Z " fill="#2F3338" transform="translate(190,106)"/>
<path d="M0 0 C0.66 0.99 1.32 1.98 2 3 C1.01 3 0.02 3 -1 3 C-1 5.31 -1 7.62 -1 10 C-2.65 10.33 -4.3 10.66 -6 11 C-6.33 7.37 -6.66 3.74 -7 0 C-4.27584084 -1.36207958 -2.87220643 -0.86166193 0 0 Z " fill="#0E1110" transform="translate(119,97)"/>
<path d="M0 0 C3.63 0 7.26 0 11 0 C11 0.33 11 0.66 11 1 C9.35 1 7.7 1 6 1 C6.33 1.33 6.66 1.66 7 2 C7.804375 1.95875 8.60875 1.9175 9.4375 1.875 C10.283125 1.91625 11.12875 1.9575 12 2 C12.99 3.485 12.99 3.485 14 5 C7.375 5.25 7.375 5.25 4 3 C3.67 3.33 3.34 3.66 3 4 C0.9375 3.5625 0.9375 3.5625 -1 3 C-1.33 3.66 -1.66 4.32 -2 5 C-2 4.01 -2 3.02 -2 2 C-1.34 2 -0.68 2 0 2 C0 1.34 0 0.68 0 0 Z " fill="#AABEC2" transform="translate(161,60)"/>
<path d="M0 0 C7.94957992 -0.22428282 15.27111181 0.04596958 23 2 C21.68 3.32 20.36 4.64 19 6 C19 5.34 19 4.68 19 4 C16.8973294 3.63705686 14.79278943 3.28493028 12.6875 2.9375 C11.51574219 2.74027344 10.34398437 2.54304687 9.13671875 2.33984375 C5.97488124 1.77694302 5.97488124 1.77694302 3 3 C3 2.34 3 1.68 3 1 C2.01 0.67 1.02 0.34 0 0 Z " fill="#8DA8AF" transform="translate(125,138)"/>
<path d="M0 0 C0.99 0.33 1.98 0.66 3 1 C3 2.32 3 3.64 3 5 C4.65 5.33 6.3 5.66 8 6 C6.09401557 8.43542455 4.99403725 9.00158196 1.9375 9.8125 C0.968125 9.874375 -0.00125 9.93625 -1 10 C-1.66 9.34 -2.32 8.68 -3 8 C-2.54545455 2.54545455 -2.54545455 2.54545455 0 0 Z " fill="#4E5455" transform="translate(128,110)"/>
<path d="M0 0 C1.32 0 2.64 0 4 0 C4 0.66 4 1.32 4 2 C6.31 2 8.62 2 11 2 C11.33 2.66 11.66 3.32 12 4 C11.01 4 10.02 4 9 4 C9 4.66 9 5.32 9 6 C7.5199159 5.88637738 6.04089926 5.75877092 4.5625 5.625 C3.73878906 5.55539063 2.91507813 5.48578125 2.06640625 5.4140625 C1.38449219 5.27742188 0.70257813 5.14078125 0 5 C-0.33 4.34 -0.66 3.68 -1 3 C-0.67 2.01 -0.34 1.02 0 0 Z " fill="#1E2629" transform="translate(152,104)"/>
<path d="M0 0 C1.74506836 0.07250977 1.74506836 0.07250977 3.52539062 0.14648438 C5.34780273 0.2305957 5.34780273 0.2305957 7.20703125 0.31640625 C8.43357422 0.36861328 9.66011719 0.42082031 10.92382812 0.47460938 C13.95598143 0.60439026 16.98781419 0.73936056 20.01953125 0.87890625 C20.01953125 1.20890625 20.01953125 1.53890625 20.01953125 1.87890625 C9.3343857 2.55732819 -1.26954166 3.03388751 -11.98046875 2.87890625 C-7.69754018 0.02362054 -5.02813455 -0.22074737 0 0 Z " fill="#2F4349" transform="translate(115.98046875,132.12109375)"/>
<path d="M0 0 C3.96 0 7.92 0 12 0 C11.67 0.66 11.34 1.32 11 2 C11.66 2.66 12.32 3.32 13 4 C12.67 4.66 12.34 5.32 12 6 C8.37 6 4.74 6 1 6 C2.32 4.68 3.64 3.36 5 2 C3.35 1.67 1.7 1.34 0 1 C0 0.67 0 0.34 0 0 Z " fill="#0F1418" transform="translate(152,112)"/>
<path d="M0 0 C2 3 2 3 1.625 5.1875 C1.315625 6.0846875 1.315625 6.0846875 1 7 C1.9075 7.0825 2.815 7.165 3.75 7.25 C7.4087148 8.0943188 8.66751762 9.12925245 11 12 C11 12.33 11 12.66 11 13 C7.0645403 13.45761159 5.42755191 13.29742742 2.125 11 C-0.72988584 6.96957293 -0.41040319 4.84275759 0 0 Z " fill="#414647" transform="translate(100,81)"/>
<path d="M0 0 C0.33 2.31 0.66 4.62 1 7 C-1.97 7 -4.94 7 -8 7 C-8.33 6.34 -8.66 5.68 -9 5 C-8.34 5 -7.68 5 -7 5 C-6.67 3.68 -6.34 2.36 -6 1 C-3.92446352 0.4465236 -2.15634036 0 0 0 Z " fill="#AAB2B4" transform="translate(188,73)"/>
<path d="M0 0 C1.98 0 3.96 0 6 0 C5.67 0.99 5.34 1.98 5 3 C4.34 3 3.68 3 3 3 C3 5.31 3 7.62 3 10 C1 9 -1 8 -3 7 C-2.67 6.01 -2.34 5.02 -2 4 C-2 4.66 -2 5.32 -2 6 C-1.34 6 -0.68 6 0 6 C-0.185625 5.38125 -0.37125 4.7625 -0.5625 4.125 C-1 2 -1 2 0 0 Z " fill="#1A2121" transform="translate(103,113)"/>
<path d="M0 0 C2 2 2 2 2.125 4.4375 C2.08375 5.283125 2.0425 6.12875 2 7 C2 7.99 2 8.98 2 10 C2.99 10 3.98 10 5 10 C5.33 10.99 5.66 11.98 6 13 C4.75 14.5625 4.75 14.5625 3 16 C0.890625 15.58984375 0.890625 15.58984375 -1 15 C-1.02693575 12.87506859 -1.04636628 10.75004088 -1.0625 8.625 C-1.07410156 7.44164063 -1.08570312 6.25828125 -1.09765625 5.0390625 C-1 2 -1 2 0 0 Z " fill="#172123" transform="translate(80,92)"/>
<path d="M0 0 C0 0.66 0 1.32 0 2 C-7.41017023 2.11459026 -14.64206267 1.91160286 -22 1 C-22 0.67 -22 0.34 -22 0 C-14.72491206 -1.87744205 -7.3394308 -1.06755357 0 0 Z " fill="#9FA3A4" transform="translate(188,86)"/>
<path d="M0 0 C0.33 0.66 0.66 1.32 1 2 C2.32 1.67 3.64 1.34 5 1 C5.99 2.32 6.98 3.64 8 5 C6.02 5 4.04 5 2 5 C1.67 5.99 1.34 6.98 1 8 C0.67 7.01 0.34 6.02 0 5 C-2.97 5 -5.94 5 -9 5 C-8.67 4.34 -8.34 3.68 -8 3 C-5.35139573 2.40644386 -2.70802678 2.25790731 0 2 C0 1.34 0 0.68 0 0 Z " fill="#9DAAB0" transform="translate(185,63)"/>
<path d="M0 0 C0.4021875 0.495 0.804375 0.99 1.21875 1.5 C3.50792878 3.4277295 4.56858858 3.23451291 7.5 3 C11.57742998 2.6738056 11.57742998 2.6738056 13.78125 4.375 C15 6 15 6 15 8 C14.34 8 13.68 8 13 8 C12.67 8.66 12.34 9.32 12 10 C11.67 9.01 11.34 8.02 11 7 C8.95811462 6.26733263 8.95811462 6.26733263 6.5625 5.9375 C2.2027027 5.2027027 2.2027027 5.2027027 0 3 C0 2.01 0 1.02 0 0 Z " fill="#1E2223" transform="translate(128,123)"/>
<path d="M0 0 C2 0 2 0 3.5 1.375 C3.995 1.91125 4.49 2.4475 5 3 C5.66 3.66 6.32 4.32 7 5 C6.625 8.625 6.625 8.625 6 12 C5.34 12 4.68 12 4 12 C4 11.34 4 10.68 4 10 C3.34 10 2.68 10 2 10 C0.68373308 6.38026598 0 3.90432869 0 0 Z " fill="#5C5F5F" transform="translate(124,85)"/>
<path d="M0 0 C-0.33 1.32 -0.66 2.64 -1 4 C0.65 4.33 2.3 4.66 4 5 C4 5.33 4 5.66 4 6 C-0.29 6 -4.58 6 -9 6 C-8.67 4.68 -8.34 3.36 -8 2 C-5.25822503 0.83328724 -2.99432393 0 0 0 Z " fill="#1F2123" transform="translate(148,77)"/>
<path d="M0 0 C6.875 0.875 6.875 0.875 8 2 C10.84087552 2.28318854 13.68165215 2.44850213 16.53125 2.62109375 C17.3459375 2.74613281 18.160625 2.87117187 19 3 C19.33 3.66 19.66 4.32 20 5 C17.62412376 4.88513575 15.24984829 4.75841844 12.875 4.625 C12.20984375 4.5940625 11.5446875 4.563125 10.859375 4.53125 C6.60178738 4.28080367 2.97914217 3.52471803 -1 2 C-0.67 1.34 -0.34 0.68 0 0 Z " fill="#74898F" transform="translate(85,131)"/>
<path d="M0 0 C0 1.65 0 3.3 0 5 C-2.64 5 -5.28 5 -8 5 C-8 4.34 -8 3.68 -8 3 C-9.32 2.67 -10.64 2.34 -12 2 C-10.43670947 0.43670947 -8.72244543 0.6552225 -6.5625 0.4375 C-5.75941406 0.35371094 -4.95632812 0.26992187 -4.12890625 0.18359375 C-2 0 -2 0 0 0 Z " fill="#12191B" transform="translate(152,104)"/>
<path d="M0 0 C0.99 0.33 1.98 0.66 3 1 C3 1.99 3 2.98 3 4 C3.66 3.01 4.32 2.02 5 1 C4.67 5.29 4.34 9.58 4 14 C3.01 13.01 2.02 12.02 1 11 C0.34 10.67 -0.32 10.34 -1 10 C-0.67 9.67 -0.34 9.34 0 9 C0.07179964 7.48071962 0.08392007 5.95832518 0.0625 4.4375 C0.05347656 3.61121094 0.04445313 2.78492187 0.03515625 1.93359375 C0.02355469 1.29550781 0.01195313 0.65742187 0 0 Z " fill="#939A9D" transform="translate(122,100)"/>
<path d="M0 0 C3.3 0 6.6 0 10 0 C11.20272819 2.40545638 11.10071472 3.94996953 11.0625 6.625 C11.05347656 7.44226562 11.04445312 8.25953125 11.03515625 9.1015625 C11.02355469 9.72804688 11.01195312 10.35453125 11 11 C10.01 11.33 9.02 11.66 8 12 C8 8.7 8 5.4 8 2 C5.36 1.67 2.72 1.34 0 1 C0 0.67 0 0.34 0 0 Z " fill="#616E72" transform="translate(189,45)"/>
<path d="M0 0 C2.50357861 0.8345262 4.66785852 1.79371992 7 3 C3.22777911 4.75163456 0.333361 5.22490027 -3.8125 5.125 C-5.27623047 5.09792969 -5.27623047 5.09792969 -6.76953125 5.0703125 C-7.50558594 5.04710937 -8.24164063 5.02390625 -9 5 C-9.33 4.34 -9.66 3.68 -10 3 C-7.03 3.495 -7.03 3.495 -4 4 C-3.67 3.01 -3.34 2.02 -3 1 C-2.34 1.33 -1.68 1.66 -1 2 C-0.67 1.34 -0.34 0.68 0 0 Z " fill="#89989B" transform="translate(105,129)"/>
<path d="M0 0 C-0.33 0.66 -0.66 1.32 -1 2 C-1.99 2.33 -2.98 2.66 -4 3 C-4.33 3.33 -4.66 3.66 -5 4 C-7.33297433 4.04092937 -9.66705225 4.04241723 -12 4 C-12.66 2.68 -13.32 1.36 -14 0 C-12.04235617 -0.19456705 -10.08384679 -0.38044247 -8.125 -0.5625 C-6.48917969 -0.71912109 -6.48917969 -0.71912109 -4.8203125 -0.87890625 C-2 -1 -2 -1 0 0 Z " fill="#1E2126" transform="translate(158,121)"/>
<path d="M0 0 C2 2 2 2 2.1953125 5.2578125 C2.17210937 6.53398438 2.14890625 7.81015625 2.125 9.125 C2.10695312 10.40632813 2.08890625 11.68765625 2.0703125 13.0078125 C2.04710937 13.99523437 2.02390625 14.98265625 2 16 C1.01 16.33 0.02 16.66 -1 17 C-1 13.7 -1 10.4 -1 7 C-0.34 7 0.32 7 1 7 C0.67 4.69 0.34 2.38 0 0 Z " fill="#888C8D" transform="translate(129,92)"/>
<path d="M0 0 C0.66 0.99 1.32 1.98 2 3 C1.06810009 6.10633303 -0.19193628 8.28790442 -2 11 C-3.32 9.02 -4.64 7.04 -6 5 C-5.38125 4.731875 -4.7625 4.46375 -4.125 4.1875 C-1.7004767 3.04443152 -1.7004767 3.04443152 0 0 Z " fill="#A7AEB1" transform="translate(100,75)"/>
<path d="M0 0 C2.14576637 -0.02685938 4.29162645 -0.04633088 6.4375 -0.0625 C7.63246094 -0.07410156 8.82742187 -0.08570312 10.05859375 -0.09765625 C13 0 13 0 14 1 C14.07205511 2.68608966 14.08386068 4.37500659 14.0625 6.0625 C14.05347656 6.98160156 14.04445312 7.90070313 14.03515625 8.84765625 C14.02355469 9.55792969 14.01195312 10.26820312 14 11 C13.01 11.495 13.01 11.495 12 12 C11.67 8.37 11.34 4.74 11 1 C7.37 1 3.74 1 0 1 C0 0.67 0 0.34 0 0 Z " fill="#445051" transform="translate(187,68)"/>
<path d="M0 0 C2.375 2.0625 2.375 2.0625 4 4 C3.67 4.99 3.34 5.98 3 7 C1.72881136 6.20890398 0.45806377 5.41709922 -0.8125 4.625 C-1.52019531 4.18414062 -2.22789063 3.74328125 -2.95703125 3.2890625 C-4.65432039 2.21811524 -6.33014358 1.11323761 -8 0 C-5.02898609 -1.48550695 -3.16565278 -0.82306972 0 0 Z " fill="#393E3D" transform="translate(110,78)"/>
<path d="M0 0 C1.32 0 2.64 0 4 0 C4.33 2.31 4.66 4.62 5 7 C2.36 7 -0.28 7 -3 7 C-2 4 -2 4 1 2 C0.67 1.34 0.34 0.68 0 0 Z " fill="#A1A8AA" transform="translate(143,70)"/>
<path d="M0 0 C0 2.64 0 5.28 0 8 C-1.98 8.99 -1.98 8.99 -4 10 C-4.66 8.68 -5.32 7.36 -6 6 C-4.68 5.67 -3.36 5.34 -2 5 C-2.33 4.34 -2.66 3.68 -3 3 C-3.33 2.34 -3.66 1.68 -4 1 C-1 0 -1 0 0 0 Z " fill="#050909" transform="translate(113,118)"/>
<path d="M0 0 C1.32 0 2.64 0 4 0 C4.33 1.32 4.66 2.64 5 4 C6.32 4.33 7.64 4.66 9 5 C9 5.66 9 6.32 9 7 C6.1875 7.25 6.1875 7.25 3 7 C1.125 5.1875 1.125 5.1875 0 3 C0 2.01 0 1.02 0 0 Z " fill="#10191B" transform="translate(84,84)"/>
<path d="M0 0 C3.3 0 6.6 0 10 0 C9.67 0.99 9.34 1.98 9 3 C9 2.34 9 1.68 9 1 C8.01 1.33 7.02 1.66 6 2 C6 2.99 6 3.98 6 5 C4.02 5 2.04 5 0 5 C0 3.35 0 1.7 0 0 Z " fill="#293134" transform="translate(146,65)"/>
<path d="M0 0 C1.65 0.33 3.3 0.66 5 1 C5.33 1.99 5.66 2.98 6 4 C4.02 4.99 2.04 5.98 0 7 C-1.04449911 3.86650268 -0.93423645 3.01031744 0 0 Z " fill="#121618" transform="translate(102,79)"/>
<path d="M0 0 C1.65 0 3.3 0 5 0 C5 1.65 5 3.3 5 5 C4.67 4.34 4.34 3.68 4 3 C3.35933594 3.15597656 2.71867188 3.31195313 2.05859375 3.47265625 C-3.37234363 4.6948195 -7.55055361 5.18466226 -13 4 C-13 3.67 -13 3.34 -13 3 C-6.565 2.505 -6.565 2.505 0 2 C0 1.34 0 0.68 0 0 Z " fill="#9BABAC" transform="translate(183,43)"/>
<path d="M0 0 C-1.36983503 3.16115776 -1.9890638 3.9927092 -5 6 C-7.33199388 6.07905064 -9.66832622 6.08798769 -12 6 C-4.28571429 0 -4.28571429 0 0 0 Z " fill="#98A2A3" transform="translate(118,125)"/>
<path d="M0 0 C1.4303479 2.47926969 2.03505871 4.25041938 2.4375 7.125 C2.623125 8.07375 2.80875 9.0225 3 10 C3.99 10.66 4.98 11.32 6 12 C5.01 12 4.02 12 3 12 C3 12.66 3 13.32 3 14 C2.01 13.67 1.02 13.34 0 13 C0 12.34 0 11.68 0 11 C-0.27940115 8.69601515 -0.57633259 6.39480399 -0.87890625 4.09375 C-1 2 -1 2 0 0 Z " fill="#959B9D" transform="translate(74,96)"/>
<path d="M0 0 C1.32 0 2.64 0 4 0 C3.67 1.98 3.34 3.96 3 6 C1.35 6.33 -0.3 6.66 -2 7 C-2.125 4.625 -2.125 4.625 -2 2 C-1.34 1.34 -0.68 0.68 0 0 Z " fill="#505151" transform="translate(105,57)"/>
<path d="M0 0 C0.33 0 0.66 0 1 0 C1.02687279 1.81242052 1.04633715 3.62495233 1.0625 5.4375 C1.07410156 6.44683594 1.08570312 7.45617187 1.09765625 8.49609375 C1 11 1 11 0 12 C-1.66617115 12.04063832 -3.33388095 12.042721 -5 12 C-5 11.01 -5 10.02 -5 9 C-4.34 9 -3.68 9 -3 9 C-3 8.34 -3 7.68 -3 7 C-2.01 7 -1.02 7 0 7 C0 4.69 0 2.38 0 0 Z " fill="#15191A" transform="translate(119,101)"/>
<path d="M0 0 C0.33 0.66 0.66 1.32 1 2 C1.99 2.33 2.98 2.66 4 3 C3.01 3.495 3.01 3.495 2 4 C1.34444881 6.52733235 1.34444881 6.52733235 1 9 C0.34 8.67 -0.32 8.34 -1 8 C-1 7.34 -1 6.68 -1 6 C-1.66 6 -2.32 6 -3 6 C-2.34 7.32 -1.68 8.64 -1 10 C-1.99 9.67 -2.98 9.34 -4 9 C-3.25 4.25 -3.25 4.25 -1 2 C-0.67 1.34 -0.34 0.68 0 0 Z " fill="#828A8C" transform="translate(100,89)"/>
<path d="M0 0 C4.95 0.99 4.95 0.99 10 2 C10 2.99 10 3.98 10 5 C7.03 5 4.06 5 1 5 C0.67 3.35 0.34 1.7 0 0 Z " fill="#11181B" transform="translate(148,73)"/>
<path d="M0 0 C2.31282587 3.46923881 2.42478586 4.92205575 2 9 C0.5 10.875 0.5 10.875 -1 12 C-2.36088895 7.91733314 -1.68398693 5.24071899 -1 1 C-0.67 0.67 -0.34 0.34 0 0 Z " fill="#2A2F32" transform="translate(121,100)"/>
<path d="M0 0 C0.66 0 1.32 0 2 0 C2 2.64 2 5.28 2 8 C1.34 7.34 0.68 6.68 0 6 C0 7.98 0 9.96 0 12 C-0.66 11.67 -1.32 11.34 -2 11 C-2.05399736 9.54207116 -2.09279177 8.08357288 -2.125 6.625 C-2.15980469 5.40683594 -2.15980469 5.40683594 -2.1953125 4.1640625 C-2 2 -2 2 0 0 Z " fill="#858C8E" transform="translate(74,92)"/>
<path d="M0 0 C0.99 0.33 1.98 0.66 3 1 C3.33 2.98 3.66 4.96 4 7 C0.7 6.67 -2.6 6.34 -6 6 C-6 5.67 -6 5.34 -6 5 C-4.02 5 -2.04 5 0 5 C0 3.35 0 1.7 0 0 Z " fill="#A0A5A9" transform="translate(165,72)"/>
<path d="M0 0 C1.32 0.33 2.64 0.66 4 1 C3.67 1.66 3.34 2.32 3 3 C3.99 3.33 4.98 3.66 6 4 C6.6875 6.0625 6.6875 6.0625 7 8 C6.01 8.33 5.02 8.66 4 9 C0 2.25 0 2.25 0 0 Z " fill="#B1B5B4" transform="translate(135,65)"/>
<path d="M0 0 C0 1.32 0 2.64 0 4 C-0.598125 3.814375 -1.19625 3.62875 -1.8125 3.4375 C-4.16408762 2.77906313 -4.16408762 2.77906313 -7 4 C-7.66 3.67 -8.32 3.34 -9 3 C-9.33 3.66 -9.66 4.32 -10 5 C-9.625 3.0625 -9.625 3.0625 -9 1 C-6.04335481 -0.4783226 -3.25770263 -0.06032783 0 0 Z " fill="#C1C5C9" transform="translate(147,49)"/>
<path d="M0 0 C0.99 0.33 1.98 0.66 3 1 C2.67 4.96 2.34 8.92 2 13 C1.01 12.67 0.02 12.34 -1 12 C-1.02712066 10.56260487 -1.04645067 9.12506137 -1.0625 7.6875 C-1.07410156 6.88699219 -1.08570312 6.08648437 -1.09765625 5.26171875 C-1 3 -1 3 0 0 Z " fill="#333C3F" transform="translate(81,92)"/>
<path d="M0 0 C5.28 0 10.56 0 16 0 C15.34 1.32 14.68 2.64 14 4 C14 3.34 14 2.68 14 2 C12.80375 2.020625 11.6075 2.04125 10.375 2.0625 C6.81995131 2.06882571 3.49444376 1.69888875 0 1 C0 0.67 0 0.34 0 0 Z " fill="#4E5C5D" transform="translate(106,49)"/>
<path d="M0 0 C2.64 0 5.28 0 8 0 C8.33 0.66 8.66 1.32 9 2 C8.67 2.66 8.34 3.32 8 4 C5.36 3.67 2.72 3.34 0 3 C0 2.01 0 1.02 0 0 Z " fill="#1C2427" transform="translate(168,114)"/>
<path d="M0 0 C0.33 0 0.66 0 1 0 C1 3.3 1 6.6 1 10 C0.01 10.33 -0.98 10.66 -2 11 C-2.25 3.375 -2.25 3.375 0 0 Z " fill="#50595B" transform="translate(111,97)"/>
<path d="M0 0 C4.29 0 8.58 0 13 0 C13 0.33 13 0.66 13 1 C10.36 1.33 7.72 1.66 5 2 C5.66 2.66 6.32 3.32 7 4 C5.35 4 3.7 4 2 4 C1.34 2.68 0.68 1.36 0 0 Z " fill="#020405" transform="translate(128,119)"/>
<path d="M0 0 C2.00720923 0.28674418 4.0085944 0.61866701 6 1 C6 1.99 6 2.98 6 4 C4.35 4.33 2.7 4.66 1 5 C0.34 3.68 -0.32 2.36 -1 1 C-0.67 0.67 -0.34 0.34 0 0 Z " fill="#172124" transform="translate(85,110)"/>
<path d="M0 0 C0 1.98 0 3.96 0 6 C-1.98 6 -3.96 6 -6 6 C-6 4.35 -6 2.7 -6 1 C-3.92446352 0.4465236 -2.15634036 0 0 0 Z " fill="#9AA4A6" transform="translate(100,101)"/>
<path d="M0 0 C4.29 0.66 8.58 1.32 13 2 C13 2.33 13 2.66 13 3 C8.05 3 3.1 3 -2 3 C-1.34 2.01 -0.68 1.02 0 0 Z " fill="#2D3132" transform="translate(146,85)"/>
<path d="M0 0 C0.33 0.66 0.66 1.32 1 2 C-2.08559304 4.26881841 -3.42209376 5.05451946 -7.3125 4.6875 C-8.199375 4.460625 -9.08625 4.23375 -10 4 C-9.67 3.34 -9.34 2.68 -9 2 C-6.93359375 1.3671875 -6.93359375 1.3671875 -4.4375 0.875 C-3.61121094 0.70742187 -2.78492188 0.53984375 -1.93359375 0.3671875 C-0.97646484 0.18542969 -0.97646484 0.18542969 0 0 Z " fill="#92A7AE" transform="translate(197,137)"/>
<path d="M0 0 C3.16115776 1.36983503 3.9927092 1.9890638 6 5 C5.67 5.66 5.34 6.32 5 7 C3.0625 6.3125 3.0625 6.3125 1 5 C0.25 2.375 0.25 2.375 0 0 Z " fill="#546567" transform="translate(81,114)"/>
<path d="M0 0 C0.721875 0.12375 1.44375 0.2475 2.1875 0.375 C1.1975 0.705 0.2075 1.035 -0.8125 1.375 C-0.8125 3.025 -0.8125 4.675 -0.8125 6.375 C-3.1225 6.375 -5.4325 6.375 -7.8125 6.375 C-3.50480769 0.46730769 -3.50480769 0.46730769 0 0 Z " fill="#111419" transform="translate(188.8125,113.625)"/>
<path d="M0 0 C0.33 0 0.66 0 1 0 C1.66 2.31 2.32 4.62 3 7 C1.35 7.33 -0.3 7.66 -2 8 C-2.33 7.01 -2.66 6.02 -3 5 C-2.67 4.34 -2.34 3.68 -2 3 C-1.34 3 -0.68 3 0 3 C0 2.01 0 1.02 0 0 Z " fill="#2F383A" transform="translate(126,115)"/>
<path d="M0 0 C3.29148243 1.13499394 3.9959869 1.99283376 5.75 5.125 C6.1625 6.07375 6.575 7.0225 7 8 C6.01 8 5.02 8 4 8 C3.67 6.68 3.34 5.36 3 4 C1.68 4 0.36 4 -1 4 C-0.67 2.68 -0.34 1.36 0 0 Z " fill="#434E50" transform="translate(85,80)"/>
<path d="M0 0 C4.95 0.99 4.95 0.99 10 2 C10 2.66 10 3.32 10 4 C6.62182575 4.84454356 4.32534757 5.10844919 1 4 C0.67 2.68 0.34 1.36 0 0 Z " fill="#12191E" transform="translate(169,76)"/>
<path d="M0 0 C2.97 0 5.94 0 9 0 C9 0.66 9 1.32 9 2 C7.375 3.125 7.375 3.125 5 4 C1.75 3.125 1.75 3.125 -1 2 C-0.67 1.34 -0.34 0.68 0 0 Z " fill="#3F4A4C" transform="translate(128,50)"/>
<path d="M0 0 C2.92879371 0.62759865 5.36095629 1.58622659 8 3 C7.67 3.99 7.34 4.98 7 6 C5.1875 5.8125 5.1875 5.8125 3 5 C1.25 2.4375 1.25 2.4375 0 0 Z " fill="#717F82" transform="translate(84,121)"/>
<path d="M0 0 C1.21236328 0.01353516 1.21236328 0.01353516 2.44921875 0.02734375 C3.37154297 0.04474609 3.37154297 0.04474609 4.3125 0.0625 C1.07930553 2.21796298 -0.85646958 2.74324747 -4.6875 3.0625 C-5.6775 2.4025 -6.6675 1.7425 -7.6875 1.0625 C-4.80538698 0.10179566 -2.98899956 -0.04331883 0 0 Z " fill="#192124" transform="translate(172.6875,106.9375)"/>
<path d="M0 0 C0.66 0 1.32 0 2 0 C2 0.66 2 1.32 2 2 C2.66 2 3.32 2 4 2 C4 1.34 4 0.68 4 0 C7.875 1.75 7.875 1.75 9 4 C3.48 4.368 3.48 4.368 1.125 2.5625 C0 1 0 1 0 0 Z " fill="#373F3E" transform="translate(101,125)"/>
<path d="M0 0 C0.33 0 0.66 0 1 0 C1.33 3.96 1.66 7.92 2 12 C1.34 12 0.68 12 0 12 C-0.66 10.35 -1.32 8.7 -2 7 C-1.34 7 -0.68 7 0 7 C0 4.69 0 2.38 0 0 Z " fill="#272C2D" transform="translate(112,100)"/>
<path d="M0 0 C0.33 0.99 0.66 1.98 1 3 C1.66 3 2.32 3 3 3 C3 3.66 3 4.32 3 5 C3.66 5 4.32 5 5 5 C5 5.66 5 6.32 5 7 C4.34 7 3.68 7 3 7 C2.67 7.99 2.34 8.98 2 10 C0.68373308 6.38026598 0 3.90432869 0 0 Z " fill="#747A7C" transform="translate(125,92)"/>
<path d="M0 0 C0.99 0.33 1.98 0.66 3 1 C3.6875 3.0625 3.6875 3.0625 4 5 C1.69 4.67 -0.62 4.34 -3 4 C-2.67 3.01 -2.34 2.02 -2 1 C-1.34 0.67 -0.68 0.34 0 0 Z " fill="#728786" transform="translate(93,78)"/>
<path d="M0 0 C1.32 0.33 2.64 0.66 4 1 C4.6875 2.8125 4.6875 2.8125 5 5 C3.5625 6.75 3.5625 6.75 2 8 C1 5 1 5 2 2 C1.34 2 0.68 2 0 2 C0 1.34 0 0.68 0 0 Z " fill="#838686" transform="translate(119,77)"/>
<path d="M0 0 C0.33 0.66 0.66 1.32 1 2 C3.64 2 6.28 2 9 2 C9 2.66 9 3.32 9 4 C6.03 4 3.06 4 0 4 C-0.33 3.34 -0.66 2.68 -1 2 C-0.67 1.34 -0.34 0.68 0 0 Z " fill="#313333" transform="translate(188,70)"/>
<path d="M0 0 C3.63 0.33 7.26 0.66 11 1 C10.67 1.66 10.34 2.32 10 3 C7.36 3 4.72 3 2 3 C2 2.34 2 1.68 2 1 C1.34 0.67 0.68 0.34 0 0 Z " fill="#8EA8B0" transform="translate(113,137)"/>
<path d="M0 0 C2.4375 0.375 2.4375 0.375 5 1 C5.33 1.66 5.66 2.32 6 3 C4.02 3.66 2.04 4.32 0 5 C-0.33 4.01 -0.66 3.02 -1 2 C-0.67 1.34 -0.34 0.68 0 0 Z " fill="#A0AAAC" transform="translate(73,88)"/>
<path d="M0 0 C0.78375 0.04125 1.5675 0.0825 2.375 0.125 C1.715 2.105 1.055 4.085 0.375 6.125 C0.045 5.465 -0.285 4.805 -0.625 4.125 C-2.64169827 2.99149466 -2.64169827 2.99149466 -4.625 2.125 C-2.625 0.125 -2.625 0.125 0 0 Z " fill="#6D797A" transform="translate(87.625,74.875)"/>
<path d="M0 0 C2.97 0.33 5.94 0.66 9 1 C7.68 2.32 6.36 3.64 5 5 C4.01 4.67 3.02 4.34 2 4 C1.34 2.68 0.68 1.36 0 0 Z " fill="#484C4D" transform="translate(128,122)"/>
<path d="M0 0 C0.66 0 1.32 0 2 0 C2.99 2.31 3.98 4.62 5 7 C3.35 7 1.7 7 0 7 C0 4.69 0 2.38 0 0 Z " fill="#96A6A9" transform="translate(79,120)"/>
<path d="M0 0 C0.99 0 1.98 0 3 0 C3.33 1.32 3.66 2.64 4 4 C2.68 4.33 1.36 4.66 0 5 C-0.5625 3.0625 -0.5625 3.0625 -1 1 C-0.67 0.67 -0.34 0.34 0 0 Z " fill="#4D5759" transform="translate(101,97)"/>
<path d="M0 0 C1.2065625 0.0309375 1.2065625 0.0309375 2.4375 0.0625 C1.4475 0.5575 1.4475 0.5575 0.4375 1.0625 C-0.26401152 2.3778341 -0.92775925 3.71367592 -1.5625 5.0625 C-2.2225 6.0525 -2.8825 7.0425 -3.5625 8.0625 C-3.60491723 5.72955225 -3.60342937 3.39547433 -3.5625 1.0625 C-2.5625 0.0625 -2.5625 0.0625 0 0 Z " fill="#697978" transform="translate(79.5625,90.9375)"/>
<path d="M0 0 C0.33 0.66 0.66 1.32 1 2 C6.1693489 1.59443869 6.1693489 1.59443869 11 0 C11 0.66 11 1.32 11 2 C11.66 2.33 12.32 2.66 13 3 C9.87819599 3.96661363 7.47916205 3.98988909 4.25 3.5625 C3.05117187 3.40974609 3.05117187 3.40974609 1.828125 3.25390625 C1.22484375 3.17011719 0.6215625 3.08632813 0 3 C0 2.01 0 1.02 0 0 Z " fill="#94A0A6" transform="translate(175,56)"/>
<path d="M0 0 C1.65 0 3.3 0 5 0 C5 1.65 5 3.3 5 5 C3.0625 4.1875 3.0625 4.1875 1 3 C0.67 2.01 0.34 1.02 0 0 Z " fill="#B6B7B5" transform="translate(121,52)"/>
<path d="M0 0 C-3.75 3 -3.75 3 -6 3 C-6 3.99 -6 4.98 -6 6 C-6.66 6 -7.32 6 -8 6 C-8 4.35 -8 2.7 -8 1 C-5.29120665 -0.35439668 -2.99066732 -0.06501451 0 0 Z " fill="#C2C8C9" transform="translate(165,48)"/>
<path d="M0 0 C3.63 0 7.26 0 11 0 C11 0.33 11 0.66 11 1 C9.9275 1.144375 8.855 1.28875 7.75 1.4375 C5.08337051 1.83749442 2.58600271 2.27591924 0 3 C0 2.01 0 1.02 0 0 Z " fill="#1C1F20" transform="translate(132,103)"/>
<path d="M0 0 C1.32 0.33 2.64 0.66 4 1 C4 2.32 4 3.64 4 5 C2.68 4.67 1.36 4.34 0 4 C0 2.68 0 1.36 0 0 Z " fill="#545E60" transform="translate(91,96)"/>
<path d="M0 0 C1.32 0 2.64 0 4 0 C3.67 1.98 3.34 3.96 3 6 C2.67 5.34 2.34 4.68 2 4 C1.01 3.67 0.02 3.34 -1 3 C-0.67 2.01 -0.34 1.02 0 0 Z " fill="#222526" transform="translate(111,85)"/>
<path d="M0 0 C1.98 0.495 1.98 0.495 4 1 C3.67 1.99 3.34 2.98 3 4 C2.01 4.33 1.02 4.66 0 5 C-0.33 5.66 -0.66 6.32 -1 7 C-0.67 4.69 -0.34 2.38 0 0 Z " fill="#B6BABA" transform="translate(163,69)"/>
<path d="M0 0 C-0.99 0.495 -0.99 0.495 -2 1 C-2.33 1.66 -2.66 2.32 -3 3 C-4.32 2.67 -5.64 2.34 -7 2 C-7 1.34 -7 0.68 -7 0 C-4.3333581 -1.33332095 -2.83319697 -0.67102033 0 0 Z " fill="#333833" transform="translate(129,58)"/>
<path d="M0 0 C0.99 0 1.98 0 3 0 C3.33 1.32 3.66 2.64 4 4 C3.01 4.495 3.01 4.495 2 5 C1.01 4.34 0.02 3.68 -1 3 C-0.67 2.01 -0.34 1.02 0 0 Z " fill="#3E484A" transform="translate(96,106)"/>
<path d="M0 0 C0.99 0.33 1.98 0.66 3 1 C2.67 2.32 2.34 3.64 2 5 C0.68 4.67 -0.64 4.34 -2 4 C-1.34 2.68 -0.68 1.36 0 0 Z " fill="#9EA1A2" transform="translate(112,92)"/>
<path d="M0 0 C1.65 0 3.3 0 5 0 C5.33 1.32 5.66 2.64 6 4 C4.35 3.67 2.7 3.34 1 3 C0.67 2.01 0.34 1.02 0 0 Z " fill="#080C11" transform="translate(129,61)"/>
<path d="M0 0 C0.33 1.32 0.66 2.64 1 4 C1.66 4 2.32 4 3 4 C3 5.32 3 6.64 3 8 C2.01 8.33 1.02 8.66 0 9 C0 6.03 0 3.06 0 0 Z " fill="#445052" transform="translate(197,48)"/>
<path d="M0 0 C0.94875 0.04125 1.8975 0.0825 2.875 0.125 C2.545 1.115 2.215 2.105 1.875 3.125 C-0.435 2.795 -2.745 2.465 -5.125 2.125 C-3.125 0.125 -3.125 0.125 0 0 Z " fill="#C3CECD" transform="translate(184.125,45.875)"/>
</svg>
