<svg width="144" height="104" viewBox="0 0 144 104" fill="none" xmlns="http://www.w3.org/2000/svg">
<path d="M9.32531 48.0481C9.32531 45.905 9.74743 43.7829 10.5675 41.8029C11.3877 39.823 12.5897 38.024 14.1051 36.5086C15.6205 34.9932 17.4195 33.7911 19.3995 32.971C21.3794 32.1509 23.5015 31.7288 25.6446 31.7288C27.7877 31.7288 29.9098 32.1509 31.8897 32.971C33.8697 33.7911 35.6687 34.9932 37.1841 36.5086C38.6995 38.024 39.9016 39.823 40.7217 41.8029C41.5418 43.7829 41.9639 45.905 41.9639 48.0481C41.9639 50.1911 41.5418 52.3132 40.7217 54.2932C39.9016 56.2731 38.6995 58.0722 37.1841 59.5875C35.6687 61.1029 33.8697 62.305 31.8897 63.1251C29.9098 63.9452 27.7877 64.3674 25.6446 64.3674C23.5015 64.3674 21.3794 63.9452 19.3995 63.1251C17.4195 62.305 15.6205 61.1029 14.1051 59.5875C12.5897 58.0722 11.3877 56.2731 10.5675 54.2932C9.74743 52.3132 9.32531 50.1911 9.32531 48.0481ZM0 97.006C0 82.8431 11.4818 71.3613 25.6446 71.3613C39.8074 71.3613 51.2892 82.8431 51.2892 97.006V97.8802C51.2892 101.261 48.5499 104 45.1695 104H6.11974C2.73931 104 0 101.261 0 97.8802V97.006ZM62.9459 38.7227C66.6557 38.7227 70.2136 40.1965 72.8369 42.8197C75.4601 45.443 76.9338 49.0009 76.9338 52.7107C76.9338 56.4206 75.4601 59.9785 72.8369 62.6017C70.2136 65.225 66.6557 66.6987 62.9459 66.6987C59.236 66.6987 55.6781 65.225 53.0549 62.6017C50.4316 59.9785 48.9579 56.4206 48.9579 52.7107C48.9579 49.0009 50.4316 45.443 53.0549 42.8197C55.6781 40.1965 59.236 38.7227 62.9459 38.7227ZM62.9459 73.6927C74.5297 73.6927 83.9278 83.0908 83.9278 94.6746V97.9385C83.9278 101.29 81.2177 104 77.8664 104H56.7679C57.7295 102.179 58.2832 100.095 58.2832 97.8802V97.006C58.2832 89.502 55.7479 82.5954 51.5078 77.0877C54.8008 74.9458 58.7349 73.6927 62.9459 73.6927Z" fill="#666666"/>
<path d="M97.582 18.5085H125.345V24.678H97.582V18.5085Z" fill="#666666"/>
<path d="M97.582 30.8474H125.345V37.0169H97.582V30.8474Z" fill="#666666"/>
<path d="M97.582 43.1865H125.345V49.356H97.582V43.1865Z" fill="#666666"/>
<path d="M97.582 55.5254H125.345V61.6949H97.582V55.5254Z" fill="#666666"/>
<path d="M97.582 67.8645H125.345V74.034H97.582V67.8645Z" fill="#666666"/>
<path d="M85.2422 18.5085H91.4117V24.678H85.2422V18.5085Z" fill="#666666"/>
<path d="M85.2422 30.8474H91.4117V37.0169H85.2422V30.8474Z" fill="#666666"/>
<path d="M85.2422 43.1865H91.4117V49.356H85.2422V43.1865Z" fill="#666666"/>
<path d="M85.2422 55.5254H91.4117V61.6949H85.2422V55.5254Z" fill="#666666"/>
<path d="M85.2422 67.8645H91.4117V74.034H85.2422V67.8645Z" fill="#666666"/>
<path d="M137.685 0H75.9898C74.3536 0 72.7843 0.649998 71.6273 1.807C70.4703 2.96401 69.8203 4.53324 69.8203 6.16949V92.5424C69.8203 94.1786 70.4703 95.7479 71.6273 96.9049C72.7843 98.0619 74.3536 98.7119 75.9898 98.7119H137.685C139.321 98.7119 140.89 98.0619 142.047 96.9049C143.204 95.7479 143.854 94.1786 143.854 92.5424V6.16949C143.854 4.53324 143.204 2.96401 142.047 1.807C140.89 0.649998 139.321 0 137.685 0ZM137.685 92.5424H75.9898V6.16949H137.685V92.5424Z" fill="#666666"/>
</svg>
