<svg width="114" height="114" viewBox="0 0 114 114" fill="none" xmlns="http://www.w3.org/2000/svg">
<path fill-rule="evenodd" clip-rule="evenodd" d="M106.723 45.89L94.9387 36.8175C94.766 29.8572 94.1153 22.9169 92.9912 16.0458C92.5637 11.2958 93.3712 5.54351 89.7612 1.79101C85.0017 -2.96374 25.9734 3.07351 22.0309 4.73601C21.0602 5.03266 20.1723 5.55228 19.4383 6.25334C18.7043 6.9544 18.1444 7.81744 17.8034 8.77351C16.5592 18.256 16.7835 27.8736 18.4684 37.2878L8.01368 45.3675C5.35368 47.6475 4.02368 66.9943 3.78618 70.5568C3.16758 82.5692 3.45339 94.6112 4.64118 106.581C4.64118 106.946 4.78631 107.296 5.04464 107.555C5.30297 107.813 5.65335 107.958 6.01868 107.958C6.38402 107.958 6.73439 107.813 6.99272 107.555C7.25105 107.296 7.39618 106.946 7.39618 106.581C9.86618 108.006 6.77868 106.106 30.6854 88.7113C33.3929 86.7638 50.0274 75.0218 53.0199 75.0693C58.8624 75.0693 96.9812 103.584 101.684 107.103C101.684 107.578 101.351 107.958 101.256 108.291C91.7562 108.908 14.7159 108.956 9.62868 108.766C9.2538 108.831 8.91391 109.026 8.66894 109.317C8.42396 109.608 8.28963 109.977 8.28963 110.357C8.28963 110.737 8.42396 111.106 8.66894 111.397C8.91391 111.688 9.2538 111.883 9.62868 111.948C18.8532 112.518 100.591 115.416 104.676 113.136C105.243 112.794 105.704 112.3 106.006 111.711C108.718 105.868 114.238 51.9748 106.723 45.89ZM105.911 53.2573C102.122 54.1438 98.4295 55.4007 94.8864 57.0098C94.5064 54.8248 94.8864 54.2548 94.8864 40.6175L104.386 48.455C105.289 49.9085 105.816 51.5568 105.911 53.2573ZM18.8959 40.9975C18.8959 43.42 18.8959 38.005 20.0834 56.0123C17.0034 54.2613 13.8322 52.6758 10.5834 51.2623C11.1059 45.9898 12.5309 47.4623 18.8959 40.9975ZM7.11593 103.536C7.11593 100.164 10.0609 55.0623 10.0609 54.6823C19.9422 62.2136 30.3614 69.0116 41.2352 75.0218C28.9137 83.3343 17.4852 92.8913 7.11118 103.536M52.8252 69.4643C49.786 70.0114 46.9015 71.2106 44.3702 72.9793C37.63 67.3609 30.4628 62.2757 22.9334 57.7698C20.4207 -0.303745 16.0507 9.48601 42.6602 7.39601C88.1414 3.73851 76.4992 5.68601 86.6214 5.35351C88.5689 7.87101 88.1414 13.001 88.5689 16.5208C90.8584 28.562 91.8607 40.8123 91.5614 53.0673C91.447 54.8704 91.447 56.6791 91.5614 58.4823C81.7143 62.8099 72.1858 67.8289 63.0472 73.5018C59.9642 71.454 56.4845 70.0783 52.8347 69.4643M102.211 103.821C90.6768 93.6153 78.5546 84.0943 65.9067 75.3068C89.6662 66.2818 96.6534 60.197 106.206 56.2973C106.442 72.2312 105.101 88.1495 102.211 103.821Z" fill="black" fill-opacity="0.6"/>
<path fill-rule="evenodd" clip-rule="evenodd" d="M46.1854 19.656C44.4356 18.0163 42.2818 16.8708 39.9441 16.3367C37.6064 15.8026 35.1688 15.8989 32.8806 16.616C28.0831 19.656 25.5181 29.2557 31.7881 32.9655C40.2431 37.7155 53.8851 27.693 46.1854 19.656ZM41.9579 21.461C47.0879 30.9705 35.7829 29.973 34.3104 28.2582C33.5983 27.595 33.1071 26.7291 32.9032 25.7776C32.6993 24.8261 32.7926 23.835 33.1704 22.9382C34.3104 20.0407 37.3504 17.8035 41.9579 21.461ZM74.2769 57.295C77.3644 57.295 78.3619 53.7325 78.5519 50.6925C78.5897 42.8914 75.9958 35.3054 71.1894 29.1607C70.4924 28.4173 69.5748 27.9177 68.5721 27.7357C61.1621 26.5957 57.4999 37.2405 55.2151 44.3702C51.6051 37.2452 45.0026 36.9602 40.9604 42.0427C36.9229 47.1252 32.5481 59.6747 39.1079 57.8175C39.4118 57.737 39.6805 57.5582 39.8723 57.3091C40.064 57.0599 40.168 56.7544 40.168 56.44C40.168 56.1256 40.064 55.82 39.8723 55.5709C39.6805 55.3217 39.4118 55.143 39.1079 55.0625C39.5354 54.35 39.1079 52.6875 39.5354 52.07C40.5342 49.2951 41.9957 46.7094 43.8579 44.4225C46.1379 41.9477 48.6079 41.7577 50.7026 44.66C52.7926 47.5575 52.9826 53.2575 53.8851 54.5875H44.7176C44.3427 54.6525 44.0029 54.8478 43.7579 55.1389C43.5129 55.43 43.3786 55.7983 43.3786 56.1787C43.3786 56.5592 43.5129 56.9275 43.7579 57.2186C44.0029 57.5097 44.3427 57.705 44.7176 57.77C54.5611 58.62 64.4658 58.4608 74.2769 57.295ZM57.6424 54.54C59.2413 47.9722 61.5508 41.5982 64.5299 35.5305C69.2799 27.788 74.7946 49.79 73.7021 52.4025C72.4671 51.5475 61.6846 54.35 57.6424 54.54Z" fill="black" fill-opacity="0.6"/>
</svg>
