<svg width="133" height="133" viewBox="0 0 133 133" fill="none" xmlns="http://www.w3.org/2000/svg">
<path d="M100.3 79.4779L105.75 84.8301L74.869 115.159L69.4195 109.807L100.3 79.4779ZM51.2544 61.6372H123.915C128.956 61.6372 132.997 65.6068 132.997 70.5576V88.3983C130.589 88.3983 128.278 89.3381 126.575 91.011C124.872 92.6839 123.915 94.9528 123.915 97.3187C123.915 99.6845 124.872 101.953 126.575 103.626C128.278 105.299 130.589 106.239 132.997 106.239V124.08C132.997 129.031 128.956 133 123.915 133H51.2544C48.8456 133 46.5354 132.06 44.8321 130.387C43.1288 128.714 42.1719 126.446 42.1719 124.08V106.239C47.2127 106.239 51.2544 102.269 51.2544 97.3187C51.2544 94.9528 50.2975 92.6839 48.5942 91.011C46.8909 89.3381 44.5807 88.3983 42.1719 88.3983V70.5576C42.1719 68.1917 43.1288 65.9228 44.8321 64.2499C46.5354 62.577 48.8456 61.6372 51.2544 61.6372ZM51.2544 70.5576V81.8864C54.0141 83.4493 56.3059 85.6984 57.8995 88.4074C59.493 91.1165 60.332 94.19 60.332 97.3187C60.332 100.447 59.493 103.521 57.8995 106.23C56.3059 108.939 54.0141 111.188 51.2544 112.751V124.08H123.915V112.751C121.155 111.188 118.863 108.939 117.27 106.23C115.676 103.521 114.837 100.447 114.837 97.3187C114.837 94.19 115.676 91.1165 117.27 88.4074C118.863 85.6984 121.155 83.4493 123.915 81.8864V70.5576H51.2544ZM76.2314 79.4779C80.0007 79.4779 83.0433 82.4663 83.0433 86.1682C83.0433 89.8702 80.0007 92.8585 76.2314 92.8585C72.4622 92.8585 69.4195 89.8702 69.4195 86.1682C69.4195 82.4663 72.4622 79.4779 76.2314 79.4779ZM98.9378 101.779C102.707 101.779 105.75 104.767 105.75 108.469C105.75 112.171 102.707 115.159 98.9378 115.159C95.1685 115.159 92.1259 112.171 92.1259 108.469C92.1259 104.767 95.1685 101.779 98.9378 101.779Z" fill="#666666"/>
<path d="M43.7903 7.85155C42.8153 7.85086 41.86 8.13169 41.0357 8.66141C40.2113 9.19112 39.5516 9.94796 39.1333 10.844C38.9207 11.3188 38.6172 11.7459 38.2406 12.1002C37.8641 12.4545 37.4219 12.729 36.9399 12.9076C36.458 13.0862 35.9459 13.1655 35.4335 13.1406C34.9212 13.1158 34.4188 12.9874 33.9557 12.763C33.4926 12.5386 33.0781 12.2226 32.7363 11.8335C32.3945 11.4444 32.1323 10.99 31.965 10.4967C31.7977 10.0034 31.7286 9.48119 31.7617 8.96046C31.7949 8.43973 31.9297 7.93094 32.1582 7.46375C33.0019 5.66312 34.2388 4.08227 35.7743 2.84174C37.3098 1.60121 39.1035 0.733743 41.0187 0.305493C42.9338 -0.122757 44.9197 -0.100487 46.8251 0.370607C48.7305 0.8417 50.5049 1.74918 52.0132 3.02384C53.5215 4.29851 54.7238 5.90671 55.5283 7.72582C56.3329 9.54493 56.7185 11.5269 56.6558 13.5207C56.5931 15.5144 56.0837 17.4673 55.1665 19.2303C54.2492 20.9934 52.9484 22.5201 51.3631 23.6941C50.1628 24.5797 49.1634 25.4235 48.4782 26.2777C47.7982 27.1057 47.654 27.6612 47.654 28.0228C47.654 28.6936 48.0146 29.3068 48.5864 29.6265L82.2156 48.388C84.2274 49.51 85.8149 51.2812 86.728 53.4224C87.6411 55.5635 87.8279 57.9529 87.2588 60.214C86.6897 62.475 85.3972 64.4791 83.585 65.9104C81.7727 67.3416 79.5438 68.1187 77.2495 68.1191H10.3311C8.03385 68.122 5.80134 67.3449 3.98733 65.9109C2.17332 64.477 0.881566 62.4682 0.316745 60.203C-0.248077 57.9377 -0.053659 55.5454 0.869191 53.4053C1.79204 51.2651 3.39054 49.4994 5.41141 48.388L32.9412 33.2216C33.3879 32.9672 33.8799 32.8058 34.3885 32.7465C34.8972 32.6873 35.4123 32.7315 35.904 32.8765C36.3957 33.0216 36.8541 33.2646 37.2527 33.5914C37.6513 33.9183 37.982 34.3224 38.2257 34.7804C38.4694 35.2384 38.6213 35.7411 38.6723 36.2593C38.7234 36.7775 38.6728 37.3009 38.5233 37.799C38.3738 38.2971 38.1286 38.7601 37.8017 39.1609C37.4749 39.5618 37.073 39.8925 36.6194 40.134L9.09475 55.3005C8.58579 55.5789 8.18293 56.0225 7.95022 56.5606C7.7175 57.0987 7.66828 57.7005 7.81039 58.2703C7.9525 58.8402 8.27778 59.3453 8.73452 59.7055C9.19125 60.0657 9.75323 60.2602 10.3311 60.2581H77.2495C77.8287 60.2585 78.3915 60.0626 78.8491 59.7014C79.3066 59.3402 79.6329 58.8343 79.7765 58.2635C79.92 57.6927 79.8726 57.0895 79.6416 56.5492C79.4108 56.0088 79.0095 55.5621 78.5013 55.2795L44.8773 36.518C43.3813 35.6828 42.1332 34.4544 41.2633 32.961C40.3934 31.4676 39.9335 29.764 39.9318 28.0281C39.9318 25.2086 41.1682 22.9394 42.5127 21.2781C43.8418 19.6378 45.4903 18.3224 46.8194 17.3371C47.7014 16.6875 48.3584 15.7703 48.696 14.7172C49.0337 13.6641 49.0346 12.5292 48.6987 11.4755C48.3628 10.4218 47.7073 9.5035 46.8264 8.8524C45.9454 8.20131 44.8844 7.85092 43.7955 7.85155" fill="#666666"/>
</svg>
